<svg width="216" height="40" viewBox="0 0 216 40" fill="none" xmlns="http://www.w3.org/2000/svg">
<g clip-path="url(#clip0_2227_15258)">
<path d="M185.111 39.5397C174.597 39.535 166.11 30.8348 166.107 20.057C166.107 9.18101 174.572 0.438656 185.111 0.431645C195.653 0.424634 204.199 9.19269 204.192 20.0009C204.183 30.8464 195.69 39.5444 185.111 39.5397ZM193.131 20.078C193.12 19.8887 193.099 19.6947 193.066 19.5008C192.942 18.76 192.816 18.0215 192.694 17.2807C192.547 16.3857 192.356 15.4906 191.998 14.654C190.811 11.8755 188.518 10.4172 185.48 10.3121C182.37 10.2046 179.883 11.4455 178.467 14.2521C176.539 18.0706 176.542 22.0083 178.509 25.8151C179.855 28.4184 182.141 29.6663 185.095 29.6803C188.095 29.6943 190.334 28.3997 191.806 25.8057C192.304 24.9271 192.638 23.9666 192.846 22.9804C192.949 22.4897 193.022 21.9942 193.075 21.4965C193.127 21.0104 193.159 20.55 193.131 20.078Z" fill="#333333"/>
<path d="M28.2439 19.9703C28.2439 14.1701 28.2672 8.36987 28.2228 2.56967C28.2135 1.45263 28.5523 1.08574 29.6834 1.11378C33.8828 1.21661 38.115 0.938515 42.2817 1.3428C52.0522 2.28924 59.1167 10.5151 58.9157 20.3138C58.7007 30.8135 50.6711 38.7403 40.1504 38.8197C36.6474 38.8454 33.142 38.773 29.6413 38.8524C28.4565 38.8781 28.2182 38.4435 28.2275 37.3732C28.2696 31.573 28.2462 25.7728 28.2462 19.9726L28.2439 19.9703ZM38.4959 19.9703C38.4959 22.7301 38.4935 25.4877 38.4959 28.2476C38.4982 29.6777 38.6057 29.7969 40.0382 29.5866C43.0388 29.1473 45.3079 27.6306 46.7498 24.9268C47.8388 22.8867 48.0024 20.697 47.7827 18.4629C47.3551 14.1327 44.1535 10.868 39.9144 10.3305C38.9072 10.202 38.4351 10.403 38.4678 11.5784C38.5473 14.3734 38.4935 17.173 38.4935 19.9703H38.4959Z" fill="#333333"/>
<path d="M22.1782 24.3615C20.6663 24.3615 19.2338 24.3615 17.8012 24.3615C15.7377 24.3615 13.6743 24.3802 11.6131 24.3545C10.912 24.3451 10.6269 24.6069 10.641 25.308C10.6667 26.4741 10.6807 27.6449 10.6363 28.811C10.6036 29.6593 10.9962 29.8579 11.765 29.8509C14.9946 29.8228 18.2265 29.8719 21.4561 29.8205C22.4493 29.8042 22.856 30.0659 22.8232 31.1222C22.7578 33.3002 22.7718 35.4828 22.8186 37.6608C22.8373 38.5839 22.4914 38.8456 21.5893 38.841C14.9338 38.8082 8.27601 38.8059 1.62051 38.841C0.660046 38.8456 0.351575 38.5605 0.353912 37.5884C0.381954 25.8711 0.384291 14.1539 0.351575 2.43668C0.349238 1.3991 0.681078 1.10932 1.69062 1.11633C8.30873 1.15372 14.9245 1.15139 21.5426 1.11633C22.5148 1.11166 22.8396 1.44584 22.8186 2.39696C22.7718 4.53756 22.7578 6.6805 22.8232 8.81877C22.856 9.87972 22.4376 10.1274 21.4515 10.1087C18.299 10.055 15.1442 10.1368 11.994 10.0643C10.877 10.0386 10.5545 10.4359 10.6316 11.4712C10.6994 12.3615 10.6924 13.2636 10.6316 14.1563C10.5685 15.1144 10.9284 15.4532 11.8982 15.4369C14.8941 15.3901 17.8924 15.4579 20.8883 15.4018C21.9375 15.3831 22.3442 15.6939 22.3091 16.7829C22.2413 18.8838 22.2951 20.987 22.2834 23.0879C22.2834 23.4665 22.2203 23.8474 22.1736 24.3615H22.1782Z" fill="#333333"/>
<path d="M121.331 26.6839C123.402 27.621 125.215 28.6656 127.166 29.2569C128.837 29.7616 130.662 29.8458 132.429 29.9276C133.516 29.979 134.364 29.3223 134.637 28.1889C134.902 27.0999 134.542 26.1114 133.67 25.4874C132.539 24.6765 131.291 24.0245 130.074 23.3375C127.977 22.155 125.734 21.1829 123.792 19.7901C121.109 17.8621 119.756 15.0859 119.962 11.7091C120.259 6.80858 123.684 2.65824 128.65 1.10653C132.784 -0.185773 136.82 0.508287 140.802 1.79125C142.017 2.18151 143.181 2.75171 144.324 3.32659C144.581 3.45512 144.868 4.06038 144.768 4.27304C143.59 6.80624 142.342 9.30439 141.155 11.7278C139.213 11.1108 137.437 10.4355 135.6 10.0055C134.525 9.75308 133.355 9.79981 132.237 9.87226C130.962 9.95405 130.092 10.7346 129.985 11.7184C129.859 12.8658 130.646 13.3846 131.522 13.8029C133.946 14.9574 136.381 16.0908 138.8 17.2545C139.428 17.5583 140.024 17.9346 140.622 18.2991C144.125 20.4304 146.044 23.4613 145.922 27.6491C145.785 32.3579 143.695 35.8493 139.402 37.88C135.182 39.8758 130.726 39.8617 126.241 39.149C123.023 38.6372 119.976 37.5786 117.246 35.7488C116.954 35.5525 116.608 34.9098 116.718 34.7135C118.221 31.9957 119.8 29.32 121.329 26.6886L121.331 26.6839Z" fill="#333333"/>
<path d="M100.046 1.40794C92.6377 13.8893 85.3069 26.2399 77.8568 38.789C76.2747 36.0829 74.8282 33.6058 73.3816 31.1287C72.5193 29.6494 71.6079 28.1935 70.8344 26.6699C70.6218 26.2539 70.6218 25.5108 70.8578 25.1158C75.4545 17.4321 80.0909 9.77172 84.76 2.13238C85.0147 1.71408 85.6294 1.26539 86.0804 1.25838C90.4013 1.19295 94.7222 1.21632 99.0455 1.22566C99.3002 1.22566 99.5573 1.3168 100.048 1.41028L100.046 1.40794Z" fill="#333333"/>
<path d="M113.839 20.0775C113.839 25.8403 113.803 31.6031 113.867 37.3635C113.881 38.5741 113.497 38.8825 112.341 38.8451C109.812 38.7633 107.279 38.7961 104.75 38.8335C103.951 38.8451 103.657 38.5904 103.657 37.7678C103.675 25.9314 103.675 14.0973 103.654 2.26092C103.654 1.38925 103.96 1.10882 104.811 1.12051C107.379 1.1579 109.95 1.17192 112.518 1.1135C113.532 1.09013 113.867 1.40561 113.86 2.44086C113.817 8.32051 113.839 14.1978 113.839 20.0775Z" fill="#333333"/>
<path d="M161.24 19.9517C161.24 25.7893 161.217 31.6268 161.264 37.4644C161.273 38.5207 160.988 38.8806 159.899 38.8455C157.45 38.7684 154.994 38.7614 152.545 38.8455C151.381 38.8853 151.031 38.5698 151.035 37.3663C151.084 26.8596 151.063 16.3505 151.063 5.84378C151.063 4.59821 151.089 3.35265 151.056 2.10708C151.038 1.41769 151.288 1.12324 151.998 1.12791C154.76 1.14895 157.525 1.16063 160.287 1.12324C161.217 1.11156 161.247 1.63268 161.245 2.31973C161.233 8.19705 161.238 14.072 161.238 19.9493L161.24 19.9517Z" fill="#333333"/>
<path d="M62.899 13.4105C60.3564 9.27189 57.9821 5.40431 55.4863 1.34277H70.2953C67.8135 5.39263 65.4298 9.2789 62.8966 13.4105H62.899Z" fill="#333333"/>
<path d="M212.538 6.88622C213.085 5.3719 213.504 4.0796 214.034 2.83636C214.177 2.49985 214.658 2.30822 214.985 2.05116C215.184 2.37599 215.52 2.6868 215.553 3.02565C215.705 4.61241 215.794 6.20852 215.845 7.80228C215.854 8.05934 215.562 8.32575 215.408 8.58748C215.235 8.3351 214.938 8.0944 214.91 7.82565C214.78 6.5497 214.721 5.26674 214.618 3.71037C214.057 5.23169 213.604 6.52633 213.097 7.79995C212.982 8.08739 212.686 8.30004 212.471 8.54776C212.263 8.29771 211.971 8.07804 211.861 7.7906C211.424 6.63617 211.043 5.45837 210.414 4.30628C210.351 5.41864 210.33 6.53568 210.199 7.6387C210.159 7.97288 209.816 8.26966 209.61 8.58281C209.496 8.2533 209.276 7.91913 209.285 7.5943C209.342 6.04026 209.433 4.48388 209.578 2.93451C209.606 2.62604 209.921 2.34328 210.103 2.04883C210.433 2.29654 210.924 2.47414 211.061 2.80131C211.585 4.05389 211.996 5.35321 212.536 6.88388L212.538 6.88622Z" fill="#333333"/>
<path d="M204.393 7.51862C204.977 7.61911 205.482 7.82476 205.944 7.75231C206.379 7.68454 207.078 7.35971 207.108 7.0863C207.153 6.68669 206.776 6.16322 206.444 5.82437C206.164 5.53693 205.589 5.52992 205.332 5.23547C204.93 4.7751 204.379 4.12544 204.456 3.64871C204.545 3.09954 205.166 2.47559 205.713 2.20918C206.206 1.96848 206.914 2.14141 207.522 2.19983C207.655 2.21152 207.758 2.51765 207.875 2.68824C207.692 2.77938 207.517 2.91726 207.325 2.94764C207.146 2.97568 206.914 2.80976 206.762 2.87052C206.302 3.05747 205.87 3.3122 205.428 3.53888C205.694 3.91278 205.912 4.34043 206.244 4.6419C206.519 4.89194 207.052 4.89662 207.258 5.17237C207.669 5.71921 208.281 6.44832 208.171 6.96711C208.045 7.56302 207.302 8.28279 206.69 8.45338C206.005 8.64267 205.164 8.28279 204.4 8.12855C204.365 8.12154 204.395 7.79438 204.395 7.51862H204.393Z" fill="#333333"/>
</g>
<defs>
<clipPath id="clip0_2227_15258">
<rect width="215.491" height="39.1665" fill="white" transform="translate(0.353516 0.416992)"/>
</clipPath>
</defs>
</svg>
