<svg width="278" height="78" viewBox="0 0 278 78" fill="none" xmlns="http://www.w3.org/2000/svg">
<path fill-rule="evenodd" clip-rule="evenodd" d="M100.82 23.1966C100.82 22.9458 100.732 22.702 100.555 22.4671C100.378 22.234 100.167 22.0807 99.9199 22.008H94.1967V28.3854H99.6017C99.9546 28.3854 100.246 28.2684 100.476 28.0335C100.706 27.7995 100.82 27.5017 100.82 27.1418V23.1966ZM100.82 10.7147C100.82 10.3911 100.706 10.1119 100.476 9.87706C100.246 9.64306 99.9546 9.52606 99.6017 9.52606H94.1967V15.1997H99.6017C99.9546 15.1997 100.246 15.0738 100.476 14.8212C100.706 14.5704 100.82 14.2637 100.82 13.9029V10.7147ZM108.241 16.1714L105.857 18.6036L108.241 21.0358V28.9253C108.241 30.6546 107.648 32.1322 106.465 33.3563C105.281 34.5812 103.824 35.1937 102.094 35.1937H86.7774V6.17503L85.1875 2.77051H102.094C103.824 2.77051 105.281 3.38298 106.465 4.60794C107.648 5.83289 108.241 7.30958 108.241 9.03887V16.1714Z" fill="#F9F9F9"/>
<path fill-rule="evenodd" clip-rule="evenodd" d="M134.163 2.77051V35.1937H118.794C117.099 35.1937 115.658 34.5812 114.476 33.3563C113.29 32.1322 112.7 30.6546 112.7 28.9253V6.17503L111.109 2.77051H120.119V27.2501C120.119 27.5736 120.234 27.8537 120.463 28.0877C120.693 28.3226 120.984 28.4387 121.338 28.4387H126.744V2.77051H134.163Z" fill="#F9F9F9"/>
<path fill-rule="evenodd" clip-rule="evenodd" d="M152.669 12.4975V10.7141C152.669 10.3906 152.554 10.1114 152.325 9.87648C152.094 9.64337 151.803 9.52548 151.45 9.52548H147.264C146.909 9.52548 146.618 9.64337 146.388 9.87648C146.159 10.1114 146.044 10.3906 146.044 10.7141V13.3085C146.044 13.5974 146.132 13.8483 146.31 14.0654C146.487 14.2808 146.715 14.4253 146.999 14.4971L155.265 16.3886C156.678 16.713 157.836 17.4513 158.736 18.6045C159.638 19.7568 160.088 21.0544 160.088 22.4948V28.9253C160.088 30.6546 159.487 32.1322 158.287 33.3571C157.086 34.5821 155.636 35.1937 153.941 35.1937H144.772C143.076 35.1937 141.627 34.5821 140.427 33.3571C139.225 32.1322 138.625 30.6546 138.625 28.9253V24.9261H146.044V27.2501C146.044 27.5745 146.159 27.8546 146.388 28.0877C146.618 28.3226 146.909 28.4387 147.264 28.4387H151.45C151.803 28.4387 152.094 28.3226 152.325 28.0877C152.554 27.8546 152.669 27.5745 152.669 27.2501V23.5761C152.669 23.288 152.58 23.0266 152.404 22.7926C152.226 22.5586 151.998 22.423 151.715 22.3866L143.448 20.4951C142.034 20.1707 140.878 19.4333 139.976 18.2792C139.075 17.1269 138.625 15.8302 138.625 14.389V9.03976C138.625 7.30958 139.225 5.83289 140.427 4.60794C141.627 3.38387 143.076 2.77051 144.772 2.77051H153.941C155.636 2.77051 157.086 3.38387 158.287 4.60794C159.487 5.83289 160.088 7.30958 160.088 9.03976V12.4975H152.669Z" fill="#F9F9F9"/>
<path fill-rule="evenodd" clip-rule="evenodd" d="M171.968 35.1937H164.549V6.17503L162.959 2.77051H171.968V35.1937Z" fill="#F9F9F9"/>
<path fill-rule="evenodd" clip-rule="evenodd" d="M199.857 2.77051V35.1937H192.968L184.753 18.4423V35.1937H177.334V6.17503L175.744 2.77051H184.224L192.437 19.5219V2.77051H199.857Z" fill="#F9F9F9"/>
<path fill-rule="evenodd" clip-rule="evenodd" d="M212.644 28.4387H225.364L221.653 35.1937H205.225V6.17503L203.635 2.77051H225.364L221.653 9.52549H212.644V15.1991H222.925L219.216 22.0081H212.644V28.4387Z" fill="#F9F9F9"/>
<path fill-rule="evenodd" clip-rule="evenodd" d="M243.866 12.4975V10.7141C243.866 10.3906 243.75 10.1114 243.522 9.87648C243.291 9.64337 242.999 9.52548 242.646 9.52548H238.46C238.106 9.52548 237.815 9.64337 237.585 9.87648C237.356 10.1114 237.241 10.3906 237.241 10.7141V13.3085C237.241 13.5974 237.328 13.8483 237.507 14.0654C237.683 14.2808 237.912 14.4253 238.195 14.4971L246.463 16.3886C247.875 16.713 249.032 17.4513 249.933 18.6045C250.835 19.7568 251.285 21.0544 251.285 22.4948V28.9253C251.285 30.6546 250.685 32.1322 249.483 33.3571C248.282 34.5821 246.834 35.1937 245.138 35.1937H235.969C234.274 35.1937 232.825 34.5821 231.623 33.3571C230.422 32.1322 229.822 30.6546 229.822 28.9253V24.9261H237.241V27.2501C237.241 27.5745 237.356 27.8546 237.585 28.0877C237.815 28.3226 238.106 28.4387 238.46 28.4387H242.646C242.999 28.4387 243.291 28.3226 243.522 28.0877C243.75 27.8546 243.866 27.5745 243.866 27.2501V23.5761C243.866 23.288 243.777 23.0266 243.6 22.7926C243.424 22.5586 243.194 22.423 242.912 22.3866L234.645 20.4951C233.231 20.1707 232.075 19.4333 231.173 18.2792C230.273 17.1269 229.822 15.8302 229.822 14.389V9.03976C229.822 7.30958 230.422 5.83289 231.623 4.60794C232.825 3.38387 234.274 2.77051 235.969 2.77051H245.138C246.834 2.77051 248.282 3.38387 249.483 4.60794C250.685 5.83289 251.285 7.30958 251.285 9.03976V12.4975H243.866Z" fill="#F9F9F9"/>
<path fill-rule="evenodd" clip-rule="evenodd" d="M269.792 12.4975V10.7141C269.792 10.3906 269.676 10.1114 269.448 9.87648C269.217 9.64337 268.925 9.52548 268.573 9.52548H264.386C264.032 9.52548 263.741 9.64337 263.511 9.87648C263.282 10.1114 263.167 10.3906 263.167 10.7141V13.3085C263.167 13.5974 263.254 13.8483 263.433 14.0654C263.609 14.2808 263.838 14.4253 264.122 14.4971L272.388 16.3886C273.801 16.713 274.959 17.4513 275.859 18.6045C276.761 19.7568 277.211 21.0544 277.211 22.4948V28.9253C277.211 30.6546 276.61 32.1322 275.41 33.3571C274.208 34.5821 272.759 35.1937 271.064 35.1937H261.895C260.2 35.1937 258.75 34.5821 257.549 33.3571C256.348 32.1322 255.748 30.6546 255.748 28.9253V24.9261H263.167V27.2501C263.167 27.5745 263.282 27.8546 263.511 28.0877C263.741 28.3226 264.032 28.4387 264.386 28.4387H268.573C268.925 28.4387 269.217 28.3226 269.448 28.0877C269.676 27.8546 269.792 27.5745 269.792 27.2501V23.5761C269.792 23.288 269.702 23.0266 269.526 22.7926C269.349 22.5586 269.121 22.423 268.837 22.3866L260.571 20.4951C259.157 20.1707 258 19.4333 257.099 18.2792C256.198 17.1269 255.748 15.8302 255.748 14.389V9.03976C255.748 7.30958 256.348 5.83289 257.549 4.60794C258.75 3.38387 260.2 2.77051 261.895 2.77051H271.064C272.759 2.77051 274.208 3.38387 275.41 4.60794C276.61 5.83289 277.211 7.30958 277.211 9.03976V12.4975H269.792Z" fill="#F9F9F9"/>
<path fill-rule="evenodd" clip-rule="evenodd" d="M123.876 41.5156L116.456 73.9388H108.772L104.743 55.5113L100.769 73.9388H93.084L85.7188 41.5156H93.6673L97.5364 61.7797L101.458 41.5156H108.083L112.057 61.7797L115.926 41.5156H123.876Z" fill="#F9F9F9"/>
<path fill-rule="evenodd" clip-rule="evenodd" d="M141.768 60.4293L139.224 48.8108L136.681 60.4293H141.768ZM143.198 67.1838H135.196L133.712 73.9388H125.764L133.766 44.9193L132.175 41.5156H143.994L152.633 73.9388H144.683L143.198 67.1838Z" fill="#F9F9F9"/>
<path fill-rule="evenodd" clip-rule="evenodd" d="M165.904 57.7268H171.31C171.663 57.7268 171.954 57.6107 172.185 57.3758C172.414 57.1409 172.528 56.844 172.528 56.4841V49.5129C172.528 49.153 172.414 48.8561 172.185 48.6212C171.954 48.3872 171.663 48.2702 171.31 48.2702H165.904V57.7268ZM179.1 60.5094C178.534 61.6085 177.757 62.5002 176.768 63.1845L179.947 73.9378H172.581L169.773 64.4812H165.904V73.9378H158.484V44.9192L156.895 41.5146H173.801C175.496 41.5146 176.945 42.128 178.146 43.3521C179.347 44.577 179.947 46.0546 179.947 47.783V56.9693C179.947 58.2315 179.664 59.4103 179.1 60.5094Z" fill="#F9F9F9"/>
<path fill-rule="evenodd" clip-rule="evenodd" d="M193.701 57.7268H199.106C199.459 57.7268 199.75 57.6107 199.981 57.3758C200.21 57.1409 200.324 56.844 200.324 56.4841V49.5129C200.324 49.153 200.21 48.8561 199.981 48.6212C199.75 48.3872 199.459 48.2702 199.106 48.2702H193.701V57.7268ZM206.898 60.5094C206.331 61.6085 205.554 62.5002 204.565 63.1845L207.745 73.9378H200.379L197.57 64.4812H193.701V73.9378H186.281V44.9192L184.691 41.5146H201.598C203.294 41.5146 204.742 42.128 205.943 43.3521C207.144 44.577 207.745 46.0546 207.745 47.783V56.9693C207.745 58.2315 207.462 59.4103 206.898 60.5094Z" fill="#F9F9F9"/>
<path fill-rule="evenodd" clip-rule="evenodd" d="M221.496 73.9378H214.077V44.9192L212.486 41.5146H221.496V73.9378Z" fill="#F9F9F9"/>
<path fill-rule="evenodd" clip-rule="evenodd" d="M241.961 49.4585C241.961 49.1349 241.845 48.8557 241.616 48.6209C241.385 48.3877 241.094 48.2699 240.742 48.2699H236.555C236.201 48.2699 235.91 48.3877 235.68 48.6209C235.451 48.8557 235.336 49.1349 235.336 49.4585V65.9945C235.336 66.3189 235.451 66.5981 235.68 66.8321C235.91 67.067 236.201 67.184 236.555 67.184H240.742C241.094 67.184 241.385 67.067 241.616 66.8321C241.845 66.5981 241.961 66.3189 241.961 65.9945V49.4585ZM247.579 43.3522C248.78 44.5771 249.381 46.0547 249.381 47.7831V67.6696C249.381 69.3988 248.78 70.8764 247.579 72.1005C246.378 73.3254 244.911 73.9379 243.18 73.9379H234.065C232.334 73.9379 230.876 73.3254 229.693 72.1005C228.508 70.8764 227.918 69.3988 227.918 67.6696V47.7831C227.918 46.0547 228.508 44.5771 229.693 43.3522C230.876 42.1281 232.334 41.5156 234.065 41.5156H243.18C244.911 41.5156 246.378 42.1281 247.579 43.3522Z" fill="#F9F9F9"/>
<path fill-rule="evenodd" clip-rule="evenodd" d="M263.165 57.7268H268.571C268.924 57.7268 269.215 57.6107 269.446 57.3758C269.675 57.1409 269.79 56.844 269.79 56.4841V49.5129C269.79 49.153 269.675 48.8561 269.446 48.6212C269.215 48.3872 268.924 48.2702 268.571 48.2702H263.165V57.7268ZM276.362 60.5094C275.796 61.6085 275.019 62.5002 274.03 63.1845L277.209 73.9378H269.843L267.034 64.4812H263.165V73.9378H255.746V44.9192L254.156 41.5146H271.062C272.758 41.5146 274.207 42.128 275.408 43.3521C276.608 44.577 277.209 46.0546 277.209 47.783V56.9693C277.209 58.2315 276.926 59.4103 276.362 60.5094Z" fill="#F9F9F9"/>
<path fill-rule="evenodd" clip-rule="evenodd" d="M30.8318 0.885742C26.5837 0.885742 22.5191 1.76679 18.8299 3.3587C13.2919 5.74567 8.59091 9.72722 5.26859 14.7449C1.94454 19.7564 0 25.8262 0 32.3242V60.9945C0 62.87 0.97618 64.6029 2.56519 65.5486L22.7234 77.5394C24.7991 78.7732 27.4061 77.2468 27.4061 74.7969V45.1321C27.4061 42.2373 25.5893 39.6677 22.8955 38.753L15.9388 36.3899C14.8383 36.0168 13.703 36.8517 13.703 38.0341V41.7453C13.703 42.4899 14.1707 43.1529 14.8652 43.3886L18.5292 44.634C19.7383 45.0453 20.5545 46.1993 20.5545 47.4996V67.2265C20.5545 67.6404 20.1138 67.8975 19.7635 67.6892L7.64341 60.4795C7.15315 60.1888 6.85152 59.6534 6.85152 59.0737V32.3242C6.85152 28.9391 7.52172 25.7296 8.73607 22.8073C10.5511 18.4251 13.597 14.6838 17.4269 12.0442C21.2595 9.40901 25.8527 7.87206 30.8318 7.87206C34.1515 7.87206 37.2983 8.55456 40.1651 9.79281C44.4627 11.6444 48.1327 14.7494 50.7205 18.6538C53.3048 22.5618 54.8121 27.2471 54.8121 32.3242V59.0737C54.8121 59.6534 54.5105 60.1888 54.0211 60.4795L41.9001 67.6892C41.5498 67.8975 41.1091 67.6404 41.1091 67.2265V47.4996C41.1091 46.1993 41.9253 45.0453 43.1345 44.634L46.7984 43.3886C47.4929 43.1529 47.9606 42.4899 47.9606 41.7453V38.0341C47.9606 36.8517 46.8254 36.0168 45.724 36.3899L38.7682 38.753C36.0743 39.6677 34.2576 42.2373 34.2576 45.1321V74.7969C34.2576 77.2468 36.8636 78.7732 38.9394 77.5394L59.0993 65.5486C60.6875 64.6029 61.6636 62.87 61.6636 60.9945V32.3242C61.6636 27.9925 60.7987 23.847 59.2393 20.0862C56.8975 14.4391 52.9928 9.64567 48.071 6.25711C43.1571 2.86854 37.2035 0.885742 30.8318 0.885742Z" fill="url(#paint0_linear_2291_42111)"/>
<defs>
<linearGradient id="paint0_linear_2291_42111" x1="30.8318" y1="116.521" x2="106.04" y2="56.3637" gradientUnits="userSpaceOnUse">
<stop stop-color="#2499DE"/>
<stop offset="1" stop-color="#32D3FA"/>
</linearGradient>
</defs>
</svg>
