<svg width="56" height="57" viewBox="0 0 56 57" fill="none" xmlns="http://www.w3.org/2000/svg">
<g clip-path="url(#clip0_2349_20370)">
<path d="M33.782 46.3157C32.7888 46.9895 31.6894 47.2925 30.5518 47.4883C24.8352 48.4717 19.1328 48.3995 13.4216 47.3866C9.6696 46.7204 6.39232 43.442 6.83753 38.4124C7.26524 33.5873 9.10953 29.3331 11.7469 25.3613C13.2542 23.0925 14.987 21.0032 16.8925 19.0594C17.1955 18.7509 17.5434 18.4862 17.8409 18.228C20.7112 20.1248 23.5149 20.0778 26.4607 18.2051C29.5072 21.0492 32.0614 24.3527 34.1747 28.0697C30.8833 30.1842 28.981 33.1311 28.888 37.0592C28.7939 40.995 30.5485 44.0284 33.782 46.3146V46.3157ZM17.7764 35.4819C17.3322 36.3088 16.9056 37.1052 16.4593 37.9376C17.493 38.6749 18.6679 38.909 19.8525 39.1486C19.7399 39.7808 19.636 40.3606 19.5222 40.9961C20.1523 40.9961 20.7014 40.9502 21.2385 41.0082C21.8565 41.0749 22.1563 40.8561 22.165 40.2381C22.1749 39.4592 22.5183 39.1278 23.3409 38.9845C24.7903 38.7318 26.0067 37.9978 26.6543 36.5779C27.4441 34.8463 26.849 33.2875 25.113 32.5229C24.7313 32.3555 24.3276 32.2341 23.9284 32.1105C23.2852 31.9114 22.6299 31.7484 21.9944 31.5297C21.6509 31.4115 21.3063 31.2267 21.3205 30.7716C21.3348 30.3264 21.6235 30.042 22.0064 29.9468C22.5468 29.8134 23.1276 29.658 23.6625 29.728C24.6525 29.856 25.6228 30.1415 26.6707 30.3767C27.0011 29.716 27.3905 28.9361 27.8532 28.0085C26.8315 27.6803 25.858 27.3685 24.8253 27.0371C24.9118 26.5295 25.0091 25.952 25.1152 25.3263C24.4031 25.3263 23.7665 25.3514 23.1331 25.3164C22.7393 25.2945 22.5599 25.428 22.5304 25.813C22.5183 25.9749 22.445 26.1335 22.4407 26.2954C22.421 26.9518 22.1169 27.2165 21.4441 27.3587C20.0177 27.6606 18.8363 28.3935 18.2424 29.8199C17.5105 31.5756 18.1144 33.107 19.846 33.8782C20.277 34.0697 20.7353 34.1987 21.1849 34.3453C21.8237 34.5553 22.4844 34.7129 23.0981 34.9809C23.3289 35.0815 23.5914 35.4304 23.5849 35.6591C23.5794 35.8964 23.3125 36.2224 23.0762 36.3384C22.7306 36.509 22.3116 36.5779 21.92 36.6009C20.4389 36.6884 19.0814 36.2509 17.7753 35.4819H17.7764Z" fill="#041942"/>
<path d="M38.5289 27.6749V26.7954C38.3889 26.779 38.2511 26.7571 38.1132 26.7484C37.4055 26.7002 36.9997 26.2769 37.0095 25.5921C37.0182 24.9128 37.4405 24.4906 38.1559 24.4819C39.0485 24.4698 39.9422 24.472 40.8359 24.4819C41.6115 24.4906 42.0085 24.8778 42.0129 25.6009C42.0173 26.3272 41.6301 26.7112 40.8578 26.7484C40.7506 26.7538 40.6445 26.7648 40.5034 26.7757V27.6344C46.3359 28.165 49.9009 33.7853 49.0903 38.7855C48.3224 43.5231 44.3112 46.9808 39.5265 46.9896C34.8611 46.9983 30.7219 43.5559 30.001 39.0699C29.5569 36.31 30.0896 33.7711 31.7753 31.5199C33.4577 29.2731 35.7428 28.037 38.53 27.6727L38.5289 27.6749ZM46.7768 37.3514C46.7844 33.3412 43.5345 30.0628 39.5386 30.0508C35.5448 30.0388 32.2631 33.3106 32.2599 37.3076C32.2566 41.3069 35.5415 44.5994 39.521 44.5863C43.4973 44.5732 46.7691 41.3112 46.7768 37.3514Z" fill="#041942"/>
<path d="M21.9358 18.2296C21.2083 18.0677 20.3289 17.9693 19.5216 17.6728C17.7473 17.0209 16.6895 15.7148 16.4915 13.8147C16.2902 11.8905 16.8142 10.1392 17.9147 8.55202C18.1575 8.20198 18.4124 8.10134 18.8346 8.25886C19.946 8.67344 20.8616 9.31664 21.4982 10.3318C21.6043 10.5013 21.7159 10.6698 21.845 10.8207C22.2924 11.3458 22.754 11.4366 23.3392 11.0614C23.7976 10.7671 24.2089 10.4007 24.6574 10.0889C25.5073 9.49713 25.7917 9.53104 26.4294 10.3241C27.3647 11.4869 27.9653 12.8018 27.718 14.3113C27.3899 16.3186 25.9514 17.3315 24.1334 17.8686C23.4781 18.0622 22.7759 18.0961 21.9369 18.2274L21.9358 18.2296Z" fill="#041942"/>
<path d="M39.2369 39.3884C38.9558 39.2757 38.5379 39.1072 38.2666 38.9978C38.2152 38.4793 38.2065 38.056 38.1244 37.6469C37.9921 36.9851 38.2929 36.2609 38.935 36.0367C39.3157 35.9032 39.4579 35.6582 39.6077 35.3366C40.0912 34.3029 40.5911 33.2768 41.114 32.2628C41.2365 32.0243 41.4783 31.8482 41.6642 31.6426L41.8414 31.7082C41.8414 32.0145 41.9114 32.3416 41.8294 32.6238C41.5067 33.7374 41.1227 34.8323 40.7935 35.9448C40.7257 36.1756 40.729 36.4721 40.8121 36.6952C41.0768 37.3986 40.8712 38.1249 40.2794 38.5275C39.9446 38.755 39.6515 39.0416 39.2358 39.3884H39.2369Z" fill="#041942"/>
</g>
<defs>
<clipPath id="clip0_2349_20370">
<rect width="42.4065" height="40" fill="white" transform="translate(6.79688 8.1875)"/>
</clipPath>
</defs>
</svg>
