<svg width="232" height="54" viewBox="0 0 232 54" fill="none" xmlns="http://www.w3.org/2000/svg">
<g clip-path="url(#clip0_2227_15284)">
<path d="M17.9309 27.6883C17.9556 28.7548 17.7638 29.8153 17.367 30.8056C16.9701 31.7959 16.3765 32.6955 15.6222 33.4498C14.8678 34.2042 13.9683 34.7978 12.978 35.1946C11.9877 35.5914 10.9272 35.7832 9.86058 35.7585H3.25732V45.2962H0.689453V19.6179H9.86058C10.928 19.59 11.9899 19.7799 12.9816 20.1756C13.9733 20.5712 14.8741 21.1647 15.6291 21.9198C16.3841 22.6747 16.9776 23.5755 17.3733 24.5672C17.7689 25.559 17.9588 26.6208 17.9309 27.6883ZM15.363 27.6883C15.363 24.3864 13.052 22.0391 9.86058 22.0391H3.25732V33.3373H9.86058C13.052 33.3373 15.363 30.9531 15.363 27.6883Z" fill="#333333"/>
<path d="M38.698 26.9536V45.2954H36.277V41.7011C35.4993 42.9597 34.4068 43.994 33.1073 44.7016C31.8077 45.4091 30.3462 45.7656 28.8669 45.7357C26.3434 45.6969 23.9365 44.6673 22.1656 42.869C20.3949 41.0709 19.4023 38.6483 19.4023 36.1245C19.4023 33.6008 20.3949 31.1783 22.1656 29.3801C23.9365 27.5818 26.3434 26.5521 28.8669 26.5135C30.3464 26.4836 31.8079 26.8402 33.1075 27.5479C34.4069 28.2557 35.4994 29.2901 36.277 30.549V26.9536H38.698ZM36.277 36.125C36.2697 34.6972 35.8397 33.3036 35.0412 32.12C34.2427 30.9364 33.1116 30.0159 31.7905 29.4746C30.4693 28.9333 29.0173 28.7953 27.618 29.0782C26.2186 29.3613 24.9343 30.0524 23.9272 31.0645C22.9203 32.0767 22.2357 33.3644 21.9597 34.7653C21.6839 36.1662 21.8291 37.6173 22.3771 38.9357C22.9253 40.2541 23.8515 41.3805 25.0391 42.1731C26.2268 42.9655 27.6225 43.3884 29.0502 43.3884C30.005 43.3979 30.9521 43.2163 31.8355 42.854C32.719 42.492 33.5211 41.9567 34.1945 41.2798C34.8679 40.603 35.3992 39.7981 35.7567 38.9129C36.1144 38.0276 36.2912 37.0796 36.277 36.125Z" fill="#333333"/>
<path d="M48.2728 29.3024V40.4176C48.2728 43.5719 49.997 43.3153 53.5554 43.1684V45.2961C48.6029 46.0298 45.8518 44.819 45.8518 40.4176V29.3024H42V26.9541H45.8518V22.5522L48.2728 21.8184V26.9541H53.5554V29.3024H48.2728Z" fill="#333333"/>
<path d="M65.807 26.6602V29.0078C62.8721 29.0078 60.0109 30.5486 60.0109 35.0972V45.2952H57.5898V26.9533H60.0109V29.9982C61.2947 27.4303 63.4592 26.6602 65.807 26.6602Z" fill="#333333"/>
<path d="M68.5586 21.3051C68.5586 20.9569 68.6618 20.6164 68.8552 20.3268C69.0487 20.0372 69.3237 19.8114 69.6455 19.6781C69.9671 19.5448 70.3211 19.5098 70.6627 19.5777C71.0043 19.6457 71.3181 19.8134 71.5645 20.0596C71.8107 20.3058 71.9784 20.6196 72.0465 20.961C72.1144 21.3026 72.0795 21.6567 71.9464 21.9784C71.8131 22.3002 71.5873 22.5753 71.2979 22.7687C71.0083 22.9624 70.6679 23.0656 70.3196 23.0656C69.8527 23.0655 69.405 22.88 69.0747 22.5498C68.7445 22.2197 68.5589 21.7721 68.5586 21.3051ZM69.109 26.9543H71.53V45.296H69.109V26.9543Z" fill="#333333"/>
<path d="M94.8583 26.9536V45.2954H92.4373V41.7011C91.6596 42.9597 90.5671 43.994 89.2676 44.7016C87.968 45.4091 86.5065 45.7656 85.0272 45.7357C82.5037 45.6969 80.0968 44.6673 78.3259 42.869C76.5552 41.0709 75.5625 38.6483 75.5625 36.1245C75.5625 33.6008 76.5552 31.1783 78.3259 29.3801C80.0968 27.5818 82.5037 26.5521 85.0272 26.5135C86.5067 26.4836 87.9682 26.8402 89.2678 27.5479C90.5672 28.2557 91.6597 29.2901 92.4373 30.549V26.9536H94.8583ZM92.4373 36.125C92.43 34.6972 92 33.3036 91.2015 32.12C90.403 30.9364 89.2719 30.0159 87.9508 29.4746C86.6296 28.9333 85.1777 28.7953 83.7783 29.0782C82.3788 29.3613 81.0946 30.0524 80.0875 31.0645C79.0806 32.0767 78.396 33.3644 78.12 34.7653C77.8442 36.1661 77.9894 37.6173 78.5374 38.9357C79.0856 40.2541 80.0119 41.3805 81.1994 42.1729C82.3871 42.9655 83.7828 43.3884 85.2106 43.3884C86.1654 43.3979 87.1123 43.2163 87.9958 42.854C88.8793 42.492 89.6814 41.9567 90.3548 41.2798C91.0282 40.603 91.5595 39.7983 91.917 38.9129C92.2747 38.0276 92.4515 37.0798 92.4373 36.125Z" fill="#333333"/>
<path d="M114.449 40.842V45.6841H99.5918V20.0059H104.654V40.842H114.449Z" fill="#333333"/>
<path d="M125.896 41.9059C126.676 41.9359 127.452 41.7861 128.164 41.4681C128.877 41.15 129.506 40.6724 130.004 40.0719L133.82 42.2727C132.096 44.7674 129.344 46.198 125.823 46.198C119.66 46.198 115.771 41.9794 115.771 36.5132C115.771 31.0475 119.697 26.8291 125.456 26.8291C130.885 26.8291 134.737 31.1206 134.737 36.5132C134.734 37.1655 134.672 37.8163 134.553 38.4576H120.724C121.384 40.8789 123.401 41.9059 125.896 41.9059ZM130.004 34.7891C129.824 33.7251 129.264 32.7627 128.427 32.0812C127.59 31.3996 126.534 31.0454 125.456 31.0844C122.925 31.0844 121.201 32.4413 120.65 34.7891H130.004Z" fill="#333333"/>
<path d="M155.171 34.4225V45.6841H150.438V35.0092C150.438 32.5148 148.934 31.2308 146.807 31.2308C144.495 31.2308 142.771 32.5884 142.771 35.7798V45.6841H138.039V27.3424H142.771V29.3969C143.872 27.7458 145.779 26.8291 148.237 26.8291C152.126 26.8291 155.171 29.5435 155.171 34.4225Z" fill="#333333"/>
<path d="M177.847 20.0059V45.6841H173.115V43.5196C171.794 45.2071 169.849 46.1978 167.171 46.1978C162.256 46.1978 158.221 41.9794 158.221 36.5132C158.221 31.0475 162.256 26.8289 167.171 26.8289C169.849 26.8289 171.794 27.8192 173.115 29.5067V20.0059H177.847ZM173.115 36.5132C173.115 33.432 170.95 31.3406 168.052 31.3406C165.117 31.3406 162.953 33.432 162.953 36.5132C162.953 39.5948 165.117 41.6857 168.052 41.6857C170.95 41.6857 173.115 39.5948 173.115 36.5132Z" fill="#333333"/>
<path d="M181.619 22.2437C181.616 21.6654 181.784 21.0989 182.103 20.6164C182.423 20.1339 182.878 19.7573 183.411 19.5343C183.945 19.3112 184.532 19.2518 185.101 19.3637C185.668 19.4756 186.189 19.7537 186.599 20.1628C187.006 20.5717 187.285 21.093 187.398 21.6604C187.508 22.2279 187.449 22.8158 187.226 23.3495C187.003 23.8831 186.627 24.3384 186.145 24.6576C185.663 24.9766 185.096 25.1451 184.518 25.1416C183.751 25.1339 183.019 24.8261 182.477 24.2843C181.935 23.7425 181.627 23.0099 181.619 22.2437ZM182.17 27.3428H186.902V45.6845H182.17V27.3428Z" fill="#333333"/>
<path d="M208.369 34.4225V45.6841H203.636V35.0092C203.636 32.5148 202.132 31.2308 200.005 31.2308C197.694 31.2308 195.969 32.5884 195.969 35.7798V45.6841H191.236V27.3424H195.969V29.3969C197.069 27.7458 198.977 26.8291 201.435 26.8291C205.324 26.8291 208.369 29.5435 208.369 34.4225Z" fill="#333333"/>
<path d="M231.072 27.3424V44.8038C231.072 50.8199 226.34 53.5343 221.499 53.5343C217.573 53.5343 214.418 52.0308 212.804 49.059L216.839 46.7479C217.609 48.179 218.821 49.3159 221.646 49.3159C224.616 49.3159 226.451 47.702 226.451 44.8038V42.8231C225.167 44.5472 223.185 45.611 220.581 45.611C215.371 45.611 211.447 41.3922 211.447 36.2201C211.447 31.0844 215.371 26.8291 220.581 26.8291C223.185 26.8291 225.167 27.8929 226.451 29.6171V27.3424H231.072ZM226.451 36.22C226.451 33.3218 224.286 31.2308 221.315 31.2308C218.343 31.2308 216.18 33.3218 216.18 36.22C216.18 39.1546 218.343 41.2455 221.315 41.2455C224.286 41.2455 226.451 39.1546 226.451 36.22Z" fill="#333333"/>
<path d="M98.7042 1.59887C97.8409 1.52509 96.9725 1.53403 96.1109 1.62556C95.5581 1.66989 95.0312 1.87801 94.5974 2.22331C94.9709 1.81222 95.312 1.3728 95.6179 0.909009C94.4746 1.3257 93.2672 1.53826 92.0505 1.53699C85.9606 1.29963 81.221 2.85187 78.0996 5.95462C77.9085 6.14455 77.5239 6.79916 77.4805 6.83662C77.438 6.87341 77.9689 4.92698 77.9248 4.9624C72.9817 8.92382 72.2163 11.6209 72.3197 14.353C72.3382 14.8383 72.5711 15.6119 72.5791 16.2785C72.3605 15.797 72.0161 15.3835 71.582 15.0814C71.9805 15.6099 72.2519 16.2232 72.3752 16.8735C72.3975 17.0567 72.4242 17.3596 72.4507 17.6938C73.3509 16.4709 74.3316 15.3096 75.3864 14.2172C77.3598 12.1786 79.5152 9.36472 85.2975 7.36024C89.155 6.023 92.0328 5.90138 96.6194 4.54626C99.6369 3.65472 102.049 2.7874 103.687 1.87105C103.828 1.39723 103.941 0.913283 104.046 0.464844C102.191 1.5166 100.835 1.68764 98.7042 1.59887Z" fill="#333333"/>
<path d="M103.66 1.97266C102.158 2.96222 99.9923 3.77731 97.2483 4.77415C92.7323 6.41476 89.2424 6.67821 85.5745 8.02736C80.235 9.99142 78.1969 12.4233 75.8638 14.6664C73.8123 16.6527 71.9799 18.8537 70.3984 21.2314L70.6931 21.3055C71.2015 20.7248 72.0064 19.7386 73.1437 18.5501C73.2566 18.4771 73.4014 18.1485 73.8866 18.3826C73.9994 18.4222 74.1016 18.4871 74.1855 18.5723C74.2693 18.6575 74.3326 18.7607 74.3705 18.874C74.4116 19.0038 74.4219 19.1413 74.4005 19.2757C74.4807 19.1284 74.5089 18.9583 74.4806 18.793C74.4478 18.6158 74.3688 18.4504 74.2517 18.3133C74.1347 18.1762 73.9837 18.0725 73.8137 18.0125C74.5324 17.7806 75.2946 17.7162 76.042 17.8238C75.6334 17.5894 75.1738 17.4574 74.7028 17.4395C76.2899 16.0856 78.2312 15.2144 80.2976 14.9286C79.9034 14.7324 78.8186 14.3453 78.8186 14.3453C78.8186 14.3453 80.2958 14.2023 80.4892 14.1392C81.9854 13.6574 83.5447 13.4003 85.1162 13.3761C86.8273 13.302 88.5076 12.8972 90.0647 12.184C90.12 12.1558 86.1271 11.6525 86.1894 11.6509C88.371 11.5947 90.6131 11.9592 92.5799 11.4406C92.615 11.4314 90.4935 10.409 90.4935 10.409C91.1565 10.599 91.8311 10.7464 92.5131 10.8502C92.965 10.9036 94.538 10.9528 95.5904 10.2478C95.0053 10.0381 94.2836 9.80101 94.2836 9.80101C94.8641 9.93518 95.4614 9.98085 96.0556 9.93649C95.4944 9.61714 93.9589 8.92638 93.9589 8.92638C94.5462 9.20422 95.1666 9.40611 95.805 9.52717C96.632 9.48867 97.43 9.21018 98.1014 8.72568C98.1237 8.71019 96.627 8.02049 95.9392 7.70493C96.5008 7.9505 97.6303 8.39098 98.282 8.2757C98.7987 8.17417 99.2713 7.91508 99.6349 7.53404C99.3074 7.35715 98.9682 7.20304 98.6196 7.07276C98.6196 7.07276 99.811 7.37861 99.8355 7.35652C99.8872 7.31 99.9386 7.26314 99.9899 7.21594C100.034 7.17517 98.1784 6.71827 98.2222 6.67703C98.2654 6.63626 100.208 7.01119 100.251 6.96993C100.778 6.46296 101.267 5.91778 101.713 5.33886C101.749 5.29314 100.196 5.10762 100.196 5.10762C100.196 5.10762 101.87 5.13097 101.896 5.09578C101.977 4.98528 102.088 4.82736 102.088 4.82736L100.369 4.5732C100.923 4.66252 101.49 4.6054 102.014 4.4075C102.87 3.98927 103.339 3.01363 103.66 1.97266Z" fill="#333333"/>
</g>
<defs>
<clipPath id="clip0_2227_15284">
<rect width="230.474" height="53.0696" fill="white" transform="translate(0.689453 0.464844)"/>
</clipPath>
</defs>
</svg>
