<?xml version="1.0" encoding="UTF-8"?><svg id="Layer_2" xmlns="http://www.w3.org/2000/svg" viewBox="0 0 148.33 45"><defs><style>.cls-1,.cls-2{fill:#333;}.cls-2{fill-rule:evenodd;}</style></defs><g id="Layer_1-2"><g><path class="cls-1" d="m147.44,40.93h-2.9v.49h2.33v2.76c-.5.21-1.13.32-1.84.32-1.13,0-1.98-.28-2.54-.88-.57-.6-.85-1.48-.85-2.65,0-1.1.32-1.94.92-2.58.64-.64,1.45-.95,2.47-.95.74,0,1.45.14,2.12.46l.21-.49c-.67-.32-1.45-.46-2.3-.46-.78,0-1.48.14-2.08.49-.6.32-1.1.81-1.41,1.41-.32.6-.5,1.31-.5,2.12,0,1.27.32,2.26.99,2.97.64.71,1.59,1.06,2.83,1.06.92,0,1.8-.18,2.55-.49v-3.57Z"/><path class="cls-1" d="m70.45,44.89v-7.85h.53v7.32h3.75v.53h-4.28Z"/><path class="cls-1" d="m85.86,44.89h-4.28v-7.85h4.28v.49h-3.75v2.97h3.53v.49h-3.53v3.36h3.75v.53Z"/><path class="cls-1" d="m98.27,44.89h.57v-7.85h-.53v5.13c0,.57,0,1.2.04,1.84h-.04l-4.63-6.96h-.53v7.85h.53v-5.09c0-.42-.04-1.06-.07-1.87h.04l4.63,6.96Z"/><path class="cls-2" d="m112.52,40.9c0,1.31-.35,2.3-1.03,2.97-.71.67-1.7,1.03-3.04,1.03h-1.87v-7.85h2.12c1.24,0,2.19.32,2.86.99.67.67.95,1.59.95,2.86Zm-.6,0c0-1.13-.28-1.98-.85-2.55-.57-.57-1.41-.85-2.51-.85h-1.45v6.89h1.31c2.33,0,3.5-1.17,3.5-3.5Z"/><path class="cls-1" d="m119.8,37.05v7.85h.53v-7.85h-.53Z"/><path class="cls-1" d="m133.76,44.89h-.57l-4.63-6.96h-.04c0,.2.02.38.03.56.02.55.04,1,.04,1.32v5.09h-.53v-7.85h.53l4.63,6.96h.04c-.04-.64-.04-1.27-.04-1.84v-5.13h.53v7.85Z"/><path class="cls-1" d="m81.02,30.19l-2.69-.55c-.05-2.19-.06-4.99-.06-6.91v-5.8l.14-6.15-.71-.46-7.92,2.79v1.63l3.15.39c.11,1.73.14,3.11.14,5.51v2.09c0,1.91-.03,4.71-.08,6.89l-2.85.57v1.8h10.89v-1.8Z"/><path class="cls-1" d="m72.33,3.15c0-1.87,1.45-3.15,3.32-3.15s3.32,1.27,3.32,3.15-1.45,3.15-3.32,3.15c-1.87-.04-3.32-1.34-3.32-3.15Z"/><path class="cls-2" d="m3.65,29.36l-3.65.55v2.05h9.76v-2.05l-3.79-.57,2.11-6.33h9.55l2.11,6.47-3.86.5v2.01h12.69v-2.01l-2.99-.36L16.4,2.72h-3.61L3.65,29.36Zm13.22-8.64l-3.98-12.18-4.05,12.18h8.03Z"/><path class="cls-1" d="m38.81,29.65l2.59.54v1.8h-10.82v-1.8l2.82-.56c.05-2.18.08-4.99.08-6.9v-2.3c0-2.4-.04-3.53-.14-5.3l-3.08-.39v-1.63l7.32-2.79.71.46.32,3.49c2.14-2.46,4.64-3.91,7.35-3.91s4.63,1.24,5.43,3.94c2.37-2.84,4.87-3.98,7.51-3.98,3.99.04,6.01,2.4,6.01,7.74v4.7c0,1.95.02,4.71.06,6.87l2.66.55v1.8h-10.71v-1.8l2.71-.57c.02-1.12.04-2.39.06-3.64.01-1.15.02-2.27.02-3.22v-4.03c0-3.71-.92-4.74-3.11-4.74-1.61,0-3.16.73-4.84,2.2.07.61.1,1.26.1,1.97v4.6c0,1.95.02,4.72.06,6.88l2.59.54v1.8h-10.71v-1.8l2.78-.57c.04-2.15.08-4.89.08-6.86v-3.96c0-3.57-.81-4.77-3.11-4.77-1.67,0-3.25.85-4.81,2.21v6.48c0,1.92.02,4.73.07,6.92Z"/><path class="cls-1" d="m95.83,29.13c-3.89,0-6.58-2.9-6.58-8.2,0-5.8,2.72-8.45,5.87-8.41.54,0,1.08.05,1.63.17l.56,2.63c.28,2.09,1.27,3.08,2.86,3.08,1.34,0,2.12-.6,2.47-1.94-.42-3.39-3.68-6.04-7.95-6.04-5.9,0-10.96,4.14-10.96,11.17s4.35,11.06,10.36,11.06c4.14,0,7.11-1.87,8.55-5.48l-1.31-.95c-1.31,1.84-3.18,2.93-5.51,2.93Z"/><path class="cls-1" d="m132,25.66l.04,5.09c2.23,1.2,4.38,1.84,7.1,1.8,5.9,0,9.19-2.83,9.19-6.79,0-3-1.66-5.2-5.94-6.61l-1.73-.53c-2.97-1.03-3.85-1.8-3.85-3.39,0-1.7,1.34-2.72,3.68-2.72,1.06,0,1.92.17,2.74.53l.79,3.68h2.86l.25-4.63c-2.09-1.13-4.07-1.77-6.54-1.77-5.41,0-8.38,3.04-8.38,6.65,0,3.15,2.02,5.13,5.3,6.22l2.19.71c2.83.95,3.89,1.87,3.89,3.5,0,1.87-1.48,2.97-4.42,2.97-1.29,0-2.39-.22-3.44-.66l-.8-4.04h-2.93Z"/><path class="cls-1" d="m115.88,28.92c-1.94,0-2.97-1.1-2.97-4.42h.04v-7.21l.21-6.19-.57-.46-7.64.92v1.7l2.82.62-.13,10.83c-.07,5.76,2.3,7.88,5.94,7.88,2.77,0,5.3-1.36,7.41-4l.36,3.79,7.46-.39v-1.8l-2.65-.56v-12.38l.14-6.19-.57-.46-7.49.99v1.63l2.75.62-.12,12.6c-1.57,1.49-3.35,2.48-4.99,2.48Z"/></g></g></svg>