<svg width="62" height="142" viewBox="0 0 62 142" fill="none" xmlns="http://www.w3.org/2000/svg">
<g clip-path="url(#clip0_2623_33040)">
<path fill-rule="evenodd" clip-rule="evenodd" d="M57.3139 0.734863C49.473 0.734863 41.9707 2.33157 35.1615 5.21656V5.21656C24.9396 9.54244 16.2629 16.7581 10.1307 25.8516V25.8516C3.99537 34.9339 0.40625 45.9341 0.40625 57.7102V57.7102V109.669C0.40625 113.068 2.20803 116.208 5.14093 117.922V117.922L42.3477 139.653C46.1791 141.889 50.9908 139.123 50.9908 134.683V134.683V80.9219C50.9908 75.6756 47.6375 71.0188 42.6654 69.3611V69.3611L29.8251 65.0785C27.7939 64.4023 25.6985 65.9154 25.6985 68.0583V68.0583V74.7841C25.6985 76.1334 26.5617 77.3349 27.8437 77.7622V77.7622L34.6063 80.0191C36.8381 80.7645 38.3447 82.8559 38.3447 85.2124V85.2124V120.963C38.3447 121.713 37.5312 122.179 36.8846 121.802V121.802L14.514 108.736C13.6091 108.209 13.0524 107.239 13.0524 106.188V106.188V57.7102C13.0524 51.5756 14.2894 45.7591 16.5308 40.4629V40.4629C19.8809 32.5212 25.5028 25.7408 32.5719 20.9571V20.9571C39.6459 16.1815 48.1237 13.3961 57.3139 13.3961V13.3961C63.4412 13.3961 69.2493 14.6329 74.5407 16.877V16.877C82.473 20.2327 89.2469 25.8597 94.0233 32.9356V32.9356C98.7933 40.018 101.575 48.5091 101.575 57.7102V57.7102V106.188C101.575 107.239 101.019 108.209 100.115 108.736V108.736L77.7431 121.802C77.0965 122.179 76.2831 121.713 76.2831 120.963V120.963V85.2124C76.2831 82.8559 77.7897 80.7645 80.0214 80.0191V80.0191L86.7841 77.7622C88.0661 77.3349 88.9292 76.1334 88.9292 74.7841V74.7841V68.0583C88.9292 65.9154 86.8338 64.4023 84.801 65.0785V65.0785L71.9624 69.3611C66.9902 71.0188 63.637 75.6756 63.637 80.9219V80.9219V134.683C63.637 139.123 68.447 141.889 72.2784 139.653V139.653L109.488 117.922C112.42 116.208 114.222 113.068 114.222 109.669V109.669V57.7102C114.222 49.86 112.625 42.3472 109.747 35.5315V35.5315C105.424 25.2975 98.2173 16.6104 89.133 10.4693V10.4693C80.0631 4.32825 69.0744 0.734863 57.3139 0.734863Z" fill="url(#paint0_linear_2623_33040)"/>
</g>
<defs>
<linearGradient id="paint0_linear_2623_33040" x1="57.3139" y1="210.3" x2="194.139" y2="98.8345" gradientUnits="userSpaceOnUse">
<stop stop-color="#2499DE"/>
<stop offset="1" stop-color="#32D3FA"/>
</linearGradient>
<clipPath id="clip0_2623_33040">
<rect width="62" height="142" fill="white"/>
</clipPath>
</defs>
</svg>
