<svg width="56" height="57" viewBox="0 0 56 57" fill="none" xmlns="http://www.w3.org/2000/svg">
<path d="M34.0543 24.0494H46.9958C48.4251 24.0494 49.584 25.208 49.584 26.6376V47.3434C49.584 48.7727 48.4251 49.9316 46.9958 49.9316H26.2899C24.8603 49.9316 23.7017 48.7727 23.7017 47.3434V34.402H28.8779C31.7368 34.402 34.0544 32.0844 34.0544 29.2255L34.0543 24.0494ZM33.0282 36.7221C32.523 36.2166 31.7036 36.2166 31.1981 36.7221C30.6929 37.2276 30.6929 38.0467 31.1981 38.5523L34.4333 41.7875C34.9388 42.293 35.7583 42.293 36.2635 41.7875L42.7342 35.317C43.2394 34.8115 43.2394 33.9921 42.7342 33.4869C42.2287 32.9814 41.4093 32.9814 40.9041 33.4869L35.3485 39.0424L33.0282 36.7221ZM8.1722 5.93164H28.8781C30.3077 5.93164 31.4663 7.09057 31.4663 8.51985V29.2257C31.4663 30.6553 30.3077 31.8139 28.8781 31.8139H8.1722C6.74291 31.8139 5.58398 30.6553 5.58398 29.2257V8.51985C5.58398 7.09057 6.74291 5.93164 8.1722 5.93164V5.93164ZM16.6948 18.8731L14.3745 21.1931C13.869 21.6986 13.869 22.518 14.3745 23.0232C14.88 23.5287 15.6992 23.5287 16.2047 23.0232L18.525 20.7033L20.845 23.0232C21.3505 23.5287 22.1699 23.5287 22.6751 23.0232C23.1806 22.518 23.1806 21.6986 22.6751 21.1931L20.3552 18.8731L22.6751 16.5528C23.1806 16.0473 23.1806 15.2282 22.6751 14.7227C22.1699 14.2172 21.3505 14.2172 20.845 14.7227L18.525 17.0429L16.2047 14.7227C15.6992 14.2172 14.8801 14.2172 14.3745 14.7227C13.869 15.2281 13.869 16.0473 14.3745 16.5528L16.6948 18.8731Z" fill="#041942"/>
</svg>
