<svg width="499" height="612" viewBox="0 0 499 612" fill="none" xmlns="http://www.w3.org/2000/svg">
<path fill-rule="evenodd" clip-rule="evenodd" d="M249.514 0C215.206 0 182.379 6.9864 152.586 19.6097C107.86 38.5377 69.8945 70.11 43.0632 109.899C16.2179 149.638 0.513672 197.77 0.513672 249.296V476.643C0.513672 491.515 8.39737 505.256 21.2303 512.755L184.029 607.838C200.793 617.622 221.847 605.518 221.847 586.092V350.859C221.847 327.904 207.175 307.528 185.419 300.275L129.236 281.536C120.349 278.577 111.18 285.198 111.18 294.574V324.003C111.18 329.907 114.957 335.164 120.566 337.034L150.157 346.909C159.922 350.17 166.514 359.322 166.514 369.633V526.06C166.514 529.343 162.954 531.381 160.125 529.729L62.2424 472.559C58.283 470.254 55.847 466.008 55.847 461.412V249.296C55.847 222.454 61.2596 197.004 71.0668 173.831C85.725 139.081 110.324 109.414 141.255 88.4827C172.207 67.5867 209.302 55.3992 249.514 55.3992C276.324 55.3992 301.737 60.8112 324.89 70.6301C359.598 85.3128 389.237 109.934 410.136 140.895C431.007 171.884 443.18 209.037 443.18 249.296V461.412C443.18 466.008 440.744 470.254 436.792 472.559L338.902 529.729C336.073 531.381 332.514 529.343 332.514 526.06V369.633C332.514 359.322 339.106 350.17 348.871 346.909L378.461 337.034C384.07 335.164 387.847 329.907 387.847 324.003V294.574C387.847 285.198 378.679 278.577 369.784 281.536L313.608 300.275C291.853 307.528 277.18 327.904 277.18 350.859V586.092C277.18 605.518 298.227 617.622 314.991 607.838L477.804 512.755C490.63 505.256 498.514 491.515 498.514 476.643V249.296C498.514 214.948 491.529 182.075 478.934 152.253C460.022 107.474 428.487 69.4634 388.739 42.5931C349.053 15.7229 300.972 0 249.514 0Z" fill="url(#paint0_linear_2227_15194)"/>
<defs>
<linearGradient id="paint0_linear_2227_15194" x1="249.514" y1="916.953" x2="848.193" y2="429.236" gradientUnits="userSpaceOnUse">
<stop stop-color="#2499DE"/>
<stop offset="1" stop-color="#32D3FA"/>
</linearGradient>
</defs>
</svg>
