<svg width="145" height="66" viewBox="0 0 145 66" fill="none" xmlns="http://www.w3.org/2000/svg">
<g clip-path="url(#clip0_2227_15239)">
<path d="M49.6804 0C51.4057 2.98829 53.038 5.83111 54.6844 8.66691C56.5622 11.9041 58.4611 15.1307 60.3337 18.3714C61.9783 21.216 63.644 24.05 65.2114 26.9367C66.2161 28.7857 67.2418 30.6593 67.9379 32.6346C69.2143 36.2573 69.0548 39.9221 67.8695 43.5992C66.9683 46.3982 65.4797 48.8274 63.4546 50.864C62.1606 52.1662 60.4862 53.0881 58.9801 54.1783C58.8223 54.2922 58.6505 54.3886 58.4313 54.5271C60.6177 58.3128 62.7848 62.0653 65.0081 65.9141C64.7012 65.9404 64.461 65.9772 64.2208 65.9772C52.8644 65.9807 41.5063 66.0508 30.1517 65.9352C26.9623 65.9036 24.029 64.6715 21.3885 62.8067C17.2243 59.8657 14.7048 55.8854 13.8246 50.8956C13.5896 49.5618 13.6878 48.1719 13.5686 46.8119C13.5546 46.6454 13.1443 46.393 12.9093 46.386C11.6855 46.3421 10.4582 46.3649 9.23082 46.3649C6.25365 46.3649 3.27648 46.3649 0.183594 46.3649C1.06903 44.798 1.90713 43.2925 2.76626 41.7975C4.27589 39.172 5.79428 36.5518 7.31793 33.9333C9.58851 30.0319 11.8696 26.1375 14.1402 22.236C15.2465 20.3344 16.2442 18.3626 17.4592 16.5346C20.3505 12.1863 24.399 9.57129 29.5853 8.70022C33.5374 8.03596 37.2772 8.66166 40.8681 10.3354C41.5852 10.6702 42.2392 11.1417 42.9791 11.5851C45.2093 7.72749 47.408 3.92596 49.6769 0L49.6804 0ZM56.4202 61.0768C55.6294 59.7115 54.8808 58.4706 54.1847 57.1999C53.7604 56.4287 53.4062 55.6505 52.2876 56.1606C52.1193 56.2377 51.8843 56.1728 51.6792 56.1728C45.3181 56.1728 38.9552 56.1781 32.5941 56.1658C32.0242 56.1658 31.4369 56.1202 30.8863 55.9835C27.7776 55.2141 25.5562 53.3773 24.4936 50.3277C24.0588 49.0798 23.8712 47.7478 23.5521 46.3667C22.2231 46.3667 20.7678 46.3912 19.3143 46.3562C18.6831 46.3404 18.527 46.5928 18.52 47.1817C18.4622 51.6177 20.0928 55.2614 23.5223 58.1078C25.8911 60.0743 28.6561 61.0259 31.6701 61.0522C39.5478 61.1241 47.4273 61.0768 55.3068 61.0768H56.4202ZM40.4753 15.9527C39.6863 15.5058 38.9745 15.0238 38.1995 14.6768C35.8202 13.6077 33.3568 13.2046 30.7338 13.5972C27.2236 14.1212 24.2464 15.6741 22.2669 18.5414C19.9998 21.8242 18.1167 25.3715 16.0899 28.8173C14.4102 31.6724 12.762 34.5467 11.1087 37.4176C10.3582 38.7198 9.62708 40.0326 8.81879 41.4627C10.6335 41.4627 12.3149 41.4417 13.9964 41.475C14.4838 41.4838 14.6732 41.2962 14.8853 40.8826C15.8076 39.0791 16.7439 37.2791 17.7485 35.5212C19.814 31.9002 21.9478 28.316 24.0132 24.6933C25.2897 22.4534 26.7642 20.4395 29.3223 19.5492C30.7601 19.0479 32.2224 18.6063 33.7671 19.0392C35.1557 19.4283 36.5321 19.8542 37.954 20.2748C38.715 18.9708 39.5636 17.5179 40.4771 15.9527H40.4753ZM46.854 14.9064C48.7371 18.133 50.5921 21.3141 52.4506 24.4935C53.8481 26.8858 55.249 29.2765 56.6499 31.6689C57.4897 33.1025 58.3384 34.5713 58.4576 36.2468C58.7153 39.8836 57.488 42.8929 54.3583 44.9751C53.3729 45.6306 53.3484 45.6498 53.9375 46.7242C54.5634 47.8652 55.249 48.9746 55.9223 50.1226C57.8965 49.0465 59.6113 47.8827 60.8965 46.1529C63.6808 42.3986 64.6346 38.2869 63.0145 33.8457C62.2588 31.774 61.1086 29.8303 60.0128 27.8989C57.5125 23.5014 54.9334 19.1496 52.391 14.7767C51.4898 13.2273 50.6009 11.6692 49.6576 10.034C48.6564 11.7761 47.7184 13.4061 46.854 14.9099V14.9064ZM28.8963 46.3667C28.7735 48.1299 29.1488 49.6214 30.6689 50.4644C31.486 50.9166 32.4994 51.2233 33.4269 51.2356C38.857 51.3057 44.2888 51.2706 49.7207 51.2689C49.9977 51.2689 50.2747 51.2426 50.7061 51.2216C49.8662 49.7528 49.0614 48.412 48.3303 47.0309C48.062 46.5244 47.7692 46.3492 47.1941 46.3509C42.0551 46.3754 36.916 46.3649 31.777 46.3649C30.846 46.3649 29.9167 46.3649 28.8963 46.3649V46.3667ZM20.1804 41.461C22.0214 41.461 23.7029 41.475 25.3826 41.4417C25.5702 41.4382 25.8104 41.1981 25.9261 41.0053C26.6976 39.7364 27.4515 38.4569 28.1949 37.1705C30.4445 33.2883 32.6677 29.3904 34.9523 25.5293C35.2521 25.0245 35.1487 24.7861 34.7735 24.5355C33.1551 23.4524 30.5006 23.8765 29.5415 25.4416C28.6754 26.8543 27.7952 28.2599 26.9571 29.6883C25.5264 32.1281 24.1184 34.58 22.707 37.032C21.8847 38.4587 21.0746 39.8923 20.1804 41.4592V41.461ZM43.9732 19.9015C43.2368 21.1897 42.6372 22.5059 41.7903 23.6364C41.1328 24.5145 41.4204 25.1612 41.8429 25.8921C44.6851 30.8153 47.5413 35.7333 50.3712 40.6635C50.6114 41.0807 50.7797 41.177 51.2426 40.9615C53.3817 39.9625 53.9743 37.3545 53.0292 35.5159C52.0509 33.6126 50.9077 31.7933 49.8294 29.9407C47.9042 26.6335 45.972 23.3279 43.9732 19.8997V19.9015ZM38.3064 29.7269C36.0131 33.6984 33.8126 37.5122 31.5719 41.3944H45.048C42.8003 37.5035 40.6051 33.7072 38.3064 29.7269Z" fill="#333333"/>
<path d="M143.397 51.5842H137.545V30.5014H126.144V51.6175C124.249 51.6175 122.448 51.6297 120.649 51.5964C120.486 51.5929 120.265 51.3107 120.185 51.1127C120.104 50.9111 120.164 50.6535 120.164 50.4186C120.164 44.1143 120.164 37.8117 120.164 31.5074V30.4576H116.184V25.2206H120.072C120.225 23.7939 120.328 22.4532 120.52 21.1246C121.014 17.6754 123.255 15.3549 126.69 14.8641C128.399 14.6205 130.14 14.5925 131.869 14.5066C132.256 14.4873 132.653 14.6363 133.084 14.7134V19.747C131.978 19.747 130.854 19.733 129.73 19.7506C128.041 19.7751 126.709 20.7145 126.367 22.2551C126.164 23.17 126.171 24.1305 126.076 25.1417H143.397V51.5842Z" fill="#333333"/>
<path d="M78.8707 14.5352H84.7409V34.4559C85.4878 34.4559 86.1751 34.4892 86.8572 34.4349C87.0518 34.4191 87.2745 34.1878 87.4042 34.0002C89.0962 31.557 90.7759 29.1033 92.4556 26.6513C92.4713 26.6285 92.4661 26.5935 92.4784 26.5689C93.0237 25.5156 93.7811 25.0301 95.0698 25.1405C96.8003 25.2895 98.5519 25.1773 100.449 25.1773C99.4181 26.639 98.4835 27.9868 97.5245 29.3189C95.836 31.6639 94.1318 33.995 92.4415 36.3383C92.1891 36.6888 92.0348 36.978 92.3784 37.4775C94.2562 40.2046 96.0657 42.9791 97.8927 45.7413C99.1638 47.6622 100.424 49.5866 101.761 51.618C99.5303 51.618 97.4368 51.6285 95.3451 51.6022C95.1434 51.6005 94.8752 51.4147 94.7559 51.2359C93.2235 48.9259 91.7157 46.6001 90.1973 44.2813C89.2434 42.8249 88.2949 41.3632 87.3095 39.9277C87.1728 39.7279 86.8466 39.5772 86.5942 39.5527C86.0226 39.4983 85.4405 39.5351 84.8005 39.5351V51.5461H78.8672V14.5352H78.8707Z" fill="#333333"/>
<path d="M111.374 51.576H105.486V25.1844C107.306 25.1844 109.132 25.1739 110.957 25.2037C111.106 25.2054 111.283 25.4631 111.385 25.6366C111.449 25.7453 111.402 25.9205 111.402 26.0678C111.402 34.3824 111.402 42.6953 111.402 51.0099C111.402 51.1799 111.386 51.3499 111.376 51.576H111.374Z" fill="#333333"/>
<path d="M104.742 18.1316C104.533 16.2002 106.473 14.4177 108.331 14.4668C110.465 14.5229 111.945 16.0407 112.08 18.0598C112.211 20.0298 110.404 21.849 108.449 21.849C106.537 21.849 104.512 20.3207 104.74 18.1334L104.742 18.1316Z" fill="#333333"/>
<path d="M140.455 14.4948C142.501 14.4913 144.107 16.109 144.183 18.1105C144.256 20.0665 142.475 21.8577 140.489 21.8525C138.458 21.8472 136.857 20.2172 136.794 18.2034C136.743 16.5594 138.183 14.4124 140.457 14.4965L140.455 14.4948Z" fill="#333333"/>
</g>
<defs>
<clipPath id="clip0_2227_15239">
<rect width="144" height="66" fill="white" transform="translate(0.185547)"/>
</clipPath>
</defs>
</svg>
