<svg width="56" height="57" viewBox="0 0 56 57" fill="none" xmlns="http://www.w3.org/2000/svg">
<g clip-path="url(#clip0_2349_20384)">
<path d="M15.8614 12.1102C16.87 12.6705 17.8513 13.2116 18.8263 13.7655C18.996 13.8616 19.1192 13.8712 19.2921 13.7607C21.0403 12.6401 22.9198 11.8332 24.9609 11.4218C25.145 11.385 25.2266 11.3001 25.2747 11.124C25.5548 10.0866 25.8494 9.05406 26.1296 8.01668C26.1696 7.871 26.2432 7.83258 26.3825 7.83258C27.7449 7.83258 29.1072 7.83258 30.4696 7.82617C30.6329 7.82617 30.6985 7.89021 30.7401 8.04389C31.0299 9.10529 31.3261 10.1651 31.6334 11.2217C31.6558 11.2985 31.7727 11.3802 31.8592 11.3994C32.9782 11.6411 34.0636 11.9789 35.1138 12.4368C35.9863 12.8162 36.8235 13.2596 37.6128 13.7911C37.7425 13.8792 37.8369 13.8776 37.9714 13.8023C38.9383 13.25 39.9101 12.7025 40.885 12.1646C40.9298 12.1406 41.0451 12.187 41.0931 12.235C41.6118 12.7409 42.1225 13.2532 42.6348 13.7655C43.0959 14.225 43.5505 14.6924 44.018 15.1455C44.1268 15.2511 44.1284 15.3264 44.0596 15.4496C43.5201 16.4022 42.9886 17.3595 42.4491 18.312C42.3803 18.4321 42.3787 18.5186 42.4555 18.637C43.6225 20.422 44.431 22.3559 44.8616 24.4483C44.8777 24.5235 44.9753 24.6148 45.0522 24.6372C46.0975 24.9366 47.1445 25.2311 48.1947 25.5113C48.3708 25.5577 48.43 25.6329 48.43 25.809C48.4252 27.165 48.4252 28.521 48.43 29.8753C48.43 30.0306 48.3772 30.0946 48.2283 30.1347C47.1733 30.4244 46.1215 30.7238 45.0666 31.0168C44.9289 31.0552 44.8728 31.1288 44.8424 31.2761C44.415 33.3317 43.6273 35.2415 42.4747 36.9961C42.3803 37.1386 42.3771 37.2442 42.4619 37.3915C43.0062 38.3345 43.5377 39.2838 44.0788 40.2283C44.1428 40.3404 44.1364 40.4028 44.042 40.4973C43.0846 41.4466 42.1289 42.4007 41.1812 43.3597C41.0419 43.5022 40.9491 43.539 40.7537 43.4253C39.814 42.8778 38.8567 42.3575 37.9105 41.8196C37.8001 41.7572 37.7297 41.7908 37.6416 41.8468C36.3705 42.6665 35.0257 43.3389 33.5801 43.7919C33.0118 43.9696 32.4291 44.1041 31.8512 44.2498C31.7183 44.2834 31.6526 44.3378 31.6158 44.4755C31.3245 45.5369 31.0235 46.5951 30.7289 47.6565C30.6953 47.7797 30.6313 47.8278 30.5032 47.8278C29.1216 47.8246 27.7385 47.8246 26.3569 47.8278C26.2288 47.8278 26.168 47.7781 26.1344 47.6549C25.8382 46.5807 25.5404 45.5081 25.2314 44.4387C25.209 44.3618 25.0986 44.2738 25.0137 44.2546C23.2992 43.8928 21.6791 43.2876 20.1582 42.4183C19.8476 42.2406 19.5419 42.0533 19.2409 41.858C19.1288 41.7844 19.0456 41.7684 18.9191 41.8404C17.9522 42.3959 16.9788 42.9386 16.0119 43.4925C15.887 43.5646 15.831 43.5005 15.7589 43.4301C15.2371 42.9082 14.7168 42.3863 14.1949 41.8644C13.7386 41.4082 13.2856 40.9503 12.8261 40.4989C12.7413 40.414 12.7236 40.3532 12.7861 40.2443C13.3416 39.263 13.8955 38.28 14.4398 37.2907C14.4734 37.2282 14.4462 37.1002 14.403 37.0313C13.8619 36.178 13.3752 35.296 12.9846 34.3626C12.5572 33.3445 12.2242 32.2975 12.0112 31.2137C11.9824 31.0664 11.8848 31.0424 11.7775 31.012C10.8906 30.7606 10.0037 30.5093 9.11843 30.2579C8.94553 30.2099 8.77583 30.1539 8.60134 30.1155C8.47647 30.0882 8.43164 30.0274 8.43164 29.9073C8.43484 28.5386 8.43965 27.1698 8.43484 25.801C8.43484 25.6201 8.50528 25.5545 8.67338 25.5081C9.72196 25.2231 10.7673 24.9237 11.8143 24.6324C11.9296 24.6004 11.9792 24.5379 12.0064 24.4147C12.4355 22.3671 13.2023 20.4572 14.3566 18.7091C14.4782 18.525 14.4894 18.3953 14.3742 18.1984C13.8331 17.2763 13.316 16.3429 12.7861 15.4144C12.7397 15.3328 12.7108 15.2735 12.7941 15.1903C13.8187 14.1673 14.8384 13.1395 15.8598 12.1118L15.8614 12.1102ZM28.4252 17.9823C22.9406 18.0255 18.5765 22.4215 18.6053 27.8726C18.6342 33.306 23.0606 37.6765 28.4701 37.6557C33.9403 37.6349 38.3188 33.1411 38.2563 27.7189C38.1923 22.103 33.5801 17.9614 28.4252 17.9823Z" fill="#041942"/>
<path d="M29.7033 33.33V35.0077H27.1611V33.3556C26.8841 33.3332 26.6248 33.3316 26.3734 33.2899C25.176 33.0962 24.2362 32.0172 24.201 30.8101C24.1946 30.578 24.1978 30.3459 24.1898 30.1122C24.185 29.9857 24.2282 29.9345 24.3611 29.9361C25.1055 29.9409 25.8499 29.9409 26.5928 29.9361C26.7208 29.9361 26.7544 29.9905 26.7512 30.1025C26.7464 30.269 26.7544 30.4355 26.7464 30.6004C26.74 30.7157 26.7721 30.7733 26.8985 30.7733C27.9151 30.7733 28.9317 30.7733 29.9482 30.7765C30.0683 30.7765 30.1147 30.7253 30.1147 30.6084C30.1115 30.157 30.1099 29.7055 30.1147 29.2525C30.1147 29.0892 30.0139 29.0956 29.9018 29.0956C28.8916 29.0956 27.8815 29.0988 26.8729 29.0956C25.3809 29.0924 24.2202 27.9445 24.1994 26.4541C24.1914 25.929 24.1914 25.4039 24.201 24.8788C24.225 23.4892 25.3713 22.3446 26.7641 22.3126C27.0255 22.3062 27.1557 22.1722 27.1547 21.9108C27.1547 21.4929 27.1547 21.0767 27.1547 20.6396H29.7065V22.3142C29.8554 22.3142 29.9867 22.311 30.1163 22.3142C31.4931 22.3478 32.6233 23.4748 32.6602 24.8516C32.6666 25.0773 32.6618 25.3031 32.6698 25.5288C32.6746 25.6569 32.6249 25.7049 32.4953 25.7049C31.7508 25.7017 31.0064 25.7017 30.2636 25.7049C30.1467 25.7049 30.1083 25.6537 30.1099 25.5512C30.1115 25.3847 30.1099 25.2182 30.1163 25.0533C30.1211 24.922 30.0763 24.8596 29.9354 24.8596C28.9253 24.8628 27.9151 24.8644 26.9065 24.8628C26.7817 24.8628 26.7496 24.9188 26.7496 25.0341C26.7512 25.4664 26.7496 25.8986 26.7432 26.3292C26.74 26.4845 26.7785 26.5486 26.9546 26.547C27.9039 26.5357 28.8548 26.5438 29.8042 26.5357C31.1953 26.5245 32.2535 27.2834 32.5881 28.5465C32.6281 28.6986 32.6554 28.8603 32.657 29.0171C32.665 29.6223 32.6746 30.2258 32.6602 30.831C32.6281 32.1501 31.4739 33.2899 30.1515 33.3236C30.0139 33.3268 29.8746 33.3236 29.7081 33.3236L29.7033 33.33Z" fill="#041942"/>
</g>
<defs>
<clipPath id="clip0_2349_20384">
<rect width="39.9984" height="40" fill="white" transform="translate(8.43164 7.82422)"/>
</clipPath>
</defs>
</svg>
