<svg width="57" height="57" viewBox="0 0 57 57" fill="none" xmlns="http://www.w3.org/2000/svg">
<path d="M23.2848 34.2305C21.8778 29.7592 20.4773 25.3085 19.0742 20.8475C24.9744 18.0968 29.7181 13.8953 33.9364 8.99805C36.7129 17.8167 39.4817 26.6148 42.2581 35.4335C42.1975 35.4257 42.1471 35.4244 42.0968 35.4141C40.775 35.1224 39.4597 34.801 38.1302 34.5454C37.0059 34.3299 35.8687 34.1814 34.7341 34.0226C34.2462 33.9542 33.7505 33.9452 33.2613 33.8936C31.7872 33.7387 30.3093 33.6961 28.8287 33.7245C27.6231 33.7477 26.4201 33.8213 25.2248 33.9968C24.6208 34.0859 24.0141 34.153 23.4087 34.2292C23.3674 34.2343 23.3235 34.2292 23.2848 34.2292V34.2305Z" fill="#041942"/>
<path d="M20.9644 34.9807C20.3603 35.1692 19.7846 35.3473 19.2089 35.528C17.7039 36.0004 16.1975 36.4716 14.6937 36.9479C13.8379 37.219 12.9654 37.3726 12.0683 37.3145C11.1299 37.2538 10.2315 37.0266 9.38342 36.6071C8.38305 36.1115 7.52081 35.4454 6.85217 34.547C6.18354 33.6486 5.72918 32.6483 5.54202 31.5433C5.46586 31.0929 5.48393 30.6256 5.46974 30.1661C5.42843 28.843 5.8247 27.6426 6.52302 26.5364C7.38527 25.1707 8.59087 24.2065 10.1179 23.6876C11.7275 23.1416 13.3578 22.6524 14.979 22.1386C15.5302 21.9644 16.0801 21.7901 16.6299 21.6146C16.7074 21.59 16.768 21.5707 16.799 21.683C16.9397 22.1812 17.083 22.6795 17.2366 23.1751C17.6497 24.5021 18.0692 25.8277 18.4874 27.1534C19.0205 28.8404 19.5574 30.5275 20.0905 32.2145C20.3306 32.9748 20.563 33.7364 20.8005 34.4967C20.8495 34.6541 20.905 34.809 20.9618 34.9781L20.9644 34.9807Z" fill="#041942"/>
<path d="M14.6387 39.3314C14.6968 39.3043 14.7316 39.2823 14.7703 39.2694C15.7191 38.9712 16.6691 38.6769 17.6178 38.3775C18.9331 37.9618 20.2485 37.5449 21.5625 37.1228C21.6645 37.0905 21.7071 37.1228 21.7587 37.1977C22.6093 38.4523 23.4587 39.7083 24.3132 40.9603C24.6062 41.3889 24.8914 41.8265 25.218 42.2279C25.7085 42.8307 26.3487 43.2386 27.0677 43.5226C27.4885 43.6891 27.7338 43.9976 27.8164 44.4339C27.9222 44.9979 27.6189 45.5349 27.069 45.7414C26.714 45.8744 26.3487 45.9841 25.9873 46.0977C24.8101 46.4707 23.6278 46.8322 22.4544 47.2168C21.6929 47.4659 20.9726 47.453 20.2859 47C19.9412 46.7728 19.705 46.4501 19.4727 46.1209C18.0502 44.115 16.6265 42.1104 15.2027 40.1071C15.0233 39.8541 14.8387 39.605 14.64 39.3288L14.6387 39.3314Z" fill="#041942"/>
<path d="M41.8867 11.8249C42.1668 11.2776 42.4469 10.729 42.7283 10.183C42.8948 9.85903 43.0678 9.53891 43.2317 9.21493C43.2795 9.12199 43.322 9.1065 43.4176 9.15813C45.1059 10.0772 46.5865 11.257 47.8489 12.7065C48.7718 13.7663 49.5204 14.9409 50.1271 16.2097C50.7583 17.5289 51.1817 18.9088 51.4205 20.3454C51.6193 21.533 51.6593 22.7295 51.5792 23.9338C51.4824 25.4028 51.1726 26.8239 50.6589 28.1999C50.4317 28.8092 50.162 29.4042 49.9064 30.0161C49.5979 29.8534 49.3255 29.7076 49.0519 29.5656C48.4684 29.2609 47.8863 28.9537 47.299 28.6543C47.1802 28.5936 47.1647 28.5394 47.2241 28.4206C47.8811 27.1182 48.3019 25.7435 48.462 24.2927C48.5717 23.3052 48.5769 22.3165 48.4517 21.3264C48.2012 19.3657 47.5494 17.5547 46.4406 15.9167C45.2944 14.2232 43.8319 12.8717 42.0132 11.9178C41.9796 11.9011 41.9474 11.883 41.9151 11.8623C41.9022 11.8546 41.8944 11.8391 41.8828 11.8249H41.8867Z" fill="#041942"/>
<path d="M42.4865 26.1481C42.9706 25.1981 43.2339 24.2042 43.2855 23.1612C43.3371 22.1428 43.1551 21.1579 42.7821 20.2079C42.2864 18.9429 41.4874 17.909 40.4006 17.0997C40.136 16.9022 39.8417 16.7434 39.5564 16.573C39.4635 16.5175 39.448 16.4711 39.5009 16.3704C39.8894 15.6372 40.2715 14.9015 40.6536 14.1657C40.8653 13.7591 40.8033 13.8172 41.1402 14.0147C43.5824 15.4423 45.1894 17.5166 45.9407 20.2466C46.2208 21.2612 46.3344 22.2977 46.2801 23.3471C46.2388 24.15 46.1214 24.9464 45.8581 25.7106C45.6683 26.2604 45.4592 26.8052 45.2527 27.3486C45.1739 27.5564 45.1494 27.5474 44.9558 27.4441C44.1813 27.031 43.403 26.6257 42.6259 26.2178C42.5833 26.1959 42.5407 26.1752 42.4865 26.1468V26.1481Z" fill="#041942"/>
</svg>
