<svg width="166" height="70" viewBox="0 0 166 70" fill="none" xmlns="http://www.w3.org/2000/svg">
<g clip-path="url(#clip0_2227_15248)">
<path d="M139.883 55.3331C137.675 54.9573 135.523 54.1865 133.552 53.0724C133.069 52.7982 132.603 52.4857 132.152 52.1597C131.332 51.5692 130.58 50.8981 129.867 50.1828C128.918 49.228 128.089 48.1753 127.37 47.0402C127.104 46.6202 126.9 46.1601 126.674 45.7152C126.423 45.2224 126.147 44.7392 125.94 44.2273C125.702 43.6367 125.526 43.0212 125.326 42.4153C125.25 42.1833 125.186 41.9455 125.119 41.7097C125.062 41.5103 124.987 41.3128 124.956 41.1095C124.81 40.101 124.649 39.0924 124.546 38.0781C124.417 36.8317 124.496 35.5931 124.674 34.3487C124.841 33.1867 125.064 32.0362 125.384 30.9126C125.566 30.276 125.865 29.6701 126.13 29.0584C126.319 28.6194 126.532 28.1879 126.753 27.7623C126.981 27.3193 127.226 26.886 127.472 26.4507C128.07 25.3904 128.923 24.5256 129.696 23.5995C130.049 23.1757 130.492 22.821 130.929 22.4778C131.669 21.8949 132.423 21.3254 133.199 20.7924C133.64 20.4913 134.133 20.2651 134.612 20.0216C135.057 19.7953 135.504 19.5671 135.968 19.385C136.557 19.1549 137.155 18.9325 137.767 18.781C138.664 18.5586 139.571 18.3246 140.487 18.2345C142.259 18.06 144.046 18.0313 145.808 18.3074C146.989 18.4914 148.174 18.7426 149.287 19.2105C150.445 19.6975 151.564 20.2747 152.558 21.0531C152.964 21.3714 153.307 21.7703 153.676 22.1365C153.819 22.2784 153.98 22.4759 154.174 22.3378C154.291 22.2535 154.349 22.0157 154.349 21.847C154.352 21.1203 154.326 20.3916 154.31 19.6649C154.303 19.3639 154.423 19.2067 154.728 19.1587C154.876 19.1338 155.029 19.1319 155.181 19.1319C158.237 19.1319 161.292 19.1319 164.348 19.1338C164.745 19.1338 165.142 19.1395 165.537 19.1434V54.4837C165.359 54.5009 165.18 54.5354 165.002 54.5354C161.863 54.5354 158.722 54.5316 155.583 54.5278C155.357 54.5278 155.129 54.5373 154.903 54.5201C154.46 54.4856 154.341 54.3514 154.343 53.9123C154.345 53.176 154.362 52.4378 154.349 51.7015C154.347 51.5615 154.258 51.3352 154.166 51.3084C154.04 51.2739 153.84 51.3582 153.729 51.456C153.488 51.6669 153.304 51.9392 153.06 52.1482C152.165 52.9171 151.194 53.5307 150.128 54.0311C146.896 55.5478 143.321 55.916 139.882 55.3312L139.883 55.3331ZM135.673 36.8394C135.713 37.3955 135.717 37.9573 135.805 38.5057C135.882 38.9773 136.024 39.4433 136.19 39.892C136.384 40.4193 136.595 40.9466 136.869 41.4336C137.278 42.1622 137.859 42.7585 138.457 43.3414C139.038 43.9071 139.74 44.2771 140.447 44.6204C141.001 44.8888 141.623 45.0211 142.207 45.2263C143.548 45.6941 144.934 45.6424 146.309 45.5331C147.331 45.4525 148.318 45.1707 149.279 44.7603C150.117 44.4018 150.859 43.9243 151.563 43.3664C152.226 42.841 152.694 42.1545 153.148 41.4566C153.562 40.82 153.877 40.1182 154.049 39.3934C154.427 37.7962 154.439 36.1741 154.159 34.5519C154.134 34.4043 154.094 34.2547 154.036 34.1166C153.689 33.2711 153.361 32.4235 152.832 31.6547C152.048 30.5176 151.003 29.7161 149.82 29.0546C149.277 28.7497 148.692 28.5829 148.094 28.441C147.764 28.3624 147.444 28.209 147.112 28.1841C146.19 28.1151 145.262 28.0767 144.338 28.0652C143.858 28.0595 143.36 28.069 142.9 28.1898C141.726 28.4986 140.545 28.7862 139.504 29.4841C138.635 30.067 137.882 30.7707 137.27 31.5933C136.789 32.2414 136.411 32.9643 136.16 33.7677C135.843 34.7782 135.694 35.7886 135.671 36.8356L135.673 36.8394Z" fill="#333333"/>
<path d="M67.5527 36.7858C67.5527 31.0853 67.5527 25.3847 67.5527 19.6842C67.5527 19.2297 67.6889 19.0879 68.1414 19.0859C71.4432 19.0859 74.745 19.0859 78.0449 19.0859C78.5396 19.0859 78.695 19.2432 78.6835 19.734C78.6547 20.9324 78.6183 22.1327 78.5857 23.3311C78.5857 23.3791 78.5703 23.4309 78.5857 23.4711C78.6355 23.6053 78.6643 23.7817 78.7659 23.8508C78.8253 23.893 79.0343 23.799 79.1225 23.7108C79.5981 23.2372 80.0429 22.7348 80.5242 22.267C81.249 21.5575 82.0543 20.942 82.9613 20.4857C84.7119 19.6017 86.566 19.132 88.541 19.132C99.1636 19.1377 109.788 19.1358 120.411 19.1358C120.685 19.1358 120.959 19.1224 121.233 19.1396C121.584 19.1607 121.72 19.3199 121.72 19.665C121.72 21.5939 121.716 23.5229 121.715 25.4499C121.715 25.9772 121.573 26.4221 121.191 26.8343C120.66 27.4076 120.211 28.0557 119.726 28.6712C119.341 29.1602 118.955 29.6472 118.572 30.138C118.131 30.7037 117.696 31.2712 117.257 31.8369C117.105 32.0306 116.944 32.2165 116.793 32.4102C116.004 33.4207 115.22 34.435 114.428 35.4436C114.06 35.9114 113.669 36.3601 113.305 36.828C112.866 37.3917 112.448 37.9746 112.009 38.5383C111.627 39.0292 111.22 39.499 110.835 39.9879C110.333 40.6245 109.846 41.2764 109.341 41.913C108.921 42.4442 108.482 42.9619 108.057 43.4911C107.855 43.7403 107.658 43.9915 107.474 44.2523C107.315 44.4766 107.432 44.7144 107.715 44.7336C107.961 44.7489 108.206 44.7336 108.454 44.7336C112.71 44.7336 116.967 44.7336 121.224 44.7336C121.479 44.7336 121.734 44.7221 121.991 44.724C122.317 44.724 122.457 44.8486 122.493 45.1707C122.506 45.2839 122.505 45.397 122.505 45.5101C122.505 48.2885 122.505 51.0688 122.505 53.8472C122.505 54.4627 122.407 54.5547 121.793 54.5374C121.632 54.5336 121.471 54.5317 121.31 54.5317C112.01 54.5317 102.711 54.5317 93.4132 54.5317C93.2138 54.5317 93.0163 54.5374 92.8169 54.5393C92.2973 54.5451 92.1496 54.409 92.1458 53.8951C92.14 53.2528 92.1458 52.6085 92.1458 51.9661C92.1458 50.7083 92.1496 49.4524 92.14 48.1945C92.1362 47.6807 92.2129 47.2512 92.6156 46.8389C93.1659 46.2752 93.5915 45.5907 94.0824 44.9675C94.4851 44.4575 94.9126 43.9685 95.3134 43.4585C95.7429 42.9101 96.1513 42.3464 96.5693 41.7903C96.6268 41.7155 96.6844 41.6408 96.7438 41.566C97.5836 40.4999 98.4216 39.4319 99.2652 38.3696C99.664 37.8692 100.084 37.384 100.479 36.8817C100.908 36.3352 101.323 35.7734 101.744 35.2193C101.819 35.1215 101.896 35.0256 101.971 34.9297C102.696 34.0132 103.418 33.0947 104.145 32.1782C104.649 31.5435 105.161 30.9165 105.668 30.2838C105.892 30.0038 106.116 29.7258 106.325 29.4363C106.509 29.1812 106.375 28.9166 106.059 28.8994C105.813 28.886 105.568 28.9032 105.32 28.9032C100.354 28.9032 95.3882 28.8802 90.422 28.9186C89.2888 28.9281 88.1537 29.0413 87.0473 29.4305C86.2746 29.7028 85.5345 30.0057 84.8423 30.4257C83.5192 31.2291 82.3362 32.1839 81.3928 33.4456C80.9096 34.0918 80.5319 34.7917 80.1062 35.4647C79.8301 35.9038 79.6882 36.4292 79.4926 36.9181C79.3987 37.1539 79.32 37.3975 79.2318 37.6352C79.1839 37.7675 79.1034 37.896 79.0842 38.0321C78.9442 38.9928 78.7103 39.9553 78.7007 40.9179C78.6604 45.1247 78.6854 49.3316 78.6854 53.5384C78.6854 53.6803 78.6873 53.8222 78.6835 53.9641C78.67 54.3457 78.509 54.5163 78.1255 54.5336C77.88 54.5451 77.6346 54.5336 77.3873 54.5336C74.3232 54.5355 71.2572 54.5393 68.1932 54.5413C67.6965 54.5413 67.5585 54.3994 67.5585 53.8625C67.5585 48.1715 67.5585 42.4806 67.5585 36.7896H67.5547L67.5527 36.7858Z" fill="#333333"/>
<path d="M0.0174711 36.8277C0.0174711 31.0984 0.0174711 25.371 0.0174711 19.6417C0.0174711 19.1221 0.0251408 19.1144 0.529427 19.1164C3.57623 19.124 6.62112 19.1221 9.66601 19.1432C10.4598 19.149 11.2709 19.124 12.0398 19.2832C12.9391 19.4692 13.871 19.5535 14.728 19.9389C15.2841 20.1901 15.8804 20.3512 16.4269 20.6177C16.9925 20.8938 17.5352 21.2255 18.0606 21.5707C19.2321 22.3415 20.1659 23.3712 21.069 24.4257C21.3547 24.7575 21.556 25.164 21.7804 25.5455C21.9645 25.86 22.1198 26.1936 22.2981 26.5119C22.3978 26.6922 22.5608 26.7363 22.7276 26.6135C22.8388 26.533 22.9423 26.4218 23.0114 26.3048C23.2357 25.9233 23.4179 25.5129 23.6633 25.1467C24.0276 24.6002 24.3977 24.048 24.831 23.5552C25.5462 22.7422 26.2729 21.9292 27.0763 21.2064C27.6861 20.6561 28.4243 20.2687 29.2143 19.9658C30.1327 19.6149 31.0761 19.4097 32.0329 19.2429C32.5142 19.1585 33.0108 19.1432 33.5017 19.1413C37.0106 19.1336 40.5214 19.1355 44.0303 19.1355C44.0783 19.1355 44.1243 19.1355 44.1722 19.1355C44.7839 19.147 44.8778 19.2468 44.8567 19.8565C44.8529 19.9696 44.851 20.0828 44.851 20.1959C44.851 31.3132 44.851 42.4305 44.851 53.5478C44.851 53.728 44.8567 53.9063 44.851 54.0866C44.8452 54.3301 44.7149 54.4758 44.4733 54.5046C44.3045 54.5238 44.1339 54.5295 43.9632 54.5295C40.8416 54.5333 37.72 54.5353 34.5984 54.5372C34.1594 54.5372 34.0155 54.401 34.0155 53.9639C34.0155 46.1081 34.0155 38.2524 34.0194 30.3966C34.0194 30.2548 34.0328 30.1129 34.0251 29.971C34.006 29.6354 33.772 29.5089 33.4748 29.6661C32.6753 30.0879 31.8603 30.481 31.08 30.9354C30.4549 31.2998 29.849 31.7101 29.2776 32.1549C28.6065 32.6746 27.9449 33.2134 27.3448 33.8116C26.7523 34.4022 26.1943 35.0426 25.7111 35.7252C25.2049 36.4404 24.8732 37.263 24.645 38.1162C24.5626 38.4288 24.438 38.5515 24.112 38.5515C23.1667 38.5534 22.2195 38.5534 21.2742 38.5477C20.8447 38.5458 20.6184 38.3636 20.4708 37.9226C20.3078 37.4413 20.1832 36.9428 19.9799 36.4788C19.7632 35.9821 19.4967 35.5047 19.211 35.0407C18.5533 33.9708 17.7212 33.0389 16.7874 32.2105C15.9993 31.5126 15.2227 30.7897 14.2449 30.3372C13.8863 30.1723 13.5718 29.9096 13.2133 29.7486C12.6304 29.4878 12.036 29.2519 11.4301 29.0525C11.0849 28.9375 10.9047 29.0985 10.8893 29.459C10.8682 29.9499 10.8491 30.4407 10.8491 30.9316C10.8491 38.5611 10.8491 46.1887 10.8491 53.8181C10.8491 54.4183 10.7398 54.5295 10.1396 54.5295C6.93367 54.5333 3.72579 54.5353 0.51984 54.5372C0.425885 54.5372 0.331931 54.5238 0.236059 54.5238C0.0826639 54.5238 0.0136362 54.449 0.0155536 54.2956C0.0174711 54.1633 0.0117188 54.031 0.0117188 53.8987C0.0174711 48.2096 0.0174711 42.5187 0.0174711 36.8277Z" fill="#333333"/>
<path d="M50.6079 36.7878C50.6079 31.1716 50.6079 25.5573 50.6079 19.9411C50.6079 19.8376 50.6079 19.7341 50.6079 19.6286C50.6175 19.2394 50.7613 19.1051 51.1505 19.1147C51.5666 19.1243 51.9827 19.1358 52.3988 19.1358C55.2462 19.1358 58.0936 19.1339 60.941 19.1339C61.0445 19.1339 61.15 19.1339 61.2535 19.1454C61.6447 19.1876 61.7827 19.3621 61.754 19.7494C61.7386 19.9565 61.7252 20.1636 61.7252 20.3726C61.7252 31.5282 61.7252 42.6819 61.7252 53.8376C61.7252 54.4032 61.5776 54.5375 60.9563 54.5375C57.967 54.5375 54.9777 54.5336 51.9885 54.5317C51.7238 54.5317 51.4592 54.5375 51.1946 54.5413C50.7498 54.5471 50.6232 54.4282 50.6098 53.9757C50.606 53.8529 50.6079 53.7302 50.6079 53.6075C50.6079 48.0009 50.6079 42.3963 50.6079 36.7897V36.7878Z" fill="#333333"/>
<path d="M56.1793 11.8899C59.262 11.8899 61.761 9.39089 61.761 6.30822C61.761 3.22556 59.262 0.726562 56.1793 0.726562C53.0967 0.726562 50.5977 3.22556 50.5977 6.30822C50.5977 9.39089 53.0967 11.8899 56.1793 11.8899Z" fill="#333333"/>
</g>
<defs>
<clipPath id="clip0_2227_15248">
<rect width="165.521" height="54.8713" fill="white" transform="translate(0.00976562 0.726562)"/>
</clipPath>
</defs>
</svg>
