<svg width="181" height="180" viewBox="0 0 181 180" fill="none" xmlns="http://www.w3.org/2000/svg">
<circle cx="90.0977" cy="90.1719" r="71" stroke="url(#paint0_linear_2744_24102)" stroke-width="3"/>
<circle cx="90.334" cy="89.8281" r="71" fill="white" stroke="url(#paint1_linear_2744_24102)" stroke-width="3"/>
<path d="M117.927 113.356C130.389 106.431 134.62 91.3062 127.517 78.9184C121.03 67.6116 114.495 56.3335 107.979 45.041C107.032 43.4016 106.075 41.7669 105.037 39.9795C101.962 45.3059 98.9909 50.4534 95.9764 55.6748C95.4704 55.3742 95.0981 55.157 94.7305 54.9351C89.7422 51.9306 84.3267 50.8161 78.589 51.5798C70.2067 52.6942 64.0752 57.1496 59.8912 64.4592C53.552 75.5297 47.1436 86.5596 40.7662 97.611C39.7829 99.3173 38.8114 101.031 37.7207 102.942C38.3866 102.942 38.8114 102.945 39.2339 102.942C44.363 102.94 49.4921 102.964 54.6213 102.909C55.6905 102.897 56.0843 103.217 55.8934 104.262C55.8457 104.532 55.8862 104.818 55.8862 105.095C55.9531 118.669 66.9536 129.653 80.5246 129.668C95.1196 129.684 109.715 129.672 124.31 129.672H125.859C122.753 124.315 119.796 119.206 116.794 114.022C117.259 113.748 117.588 113.543 117.927 113.356ZM94.0456 72.2603C95.1458 70.523 96.122 68.7117 97.2796 66.7048C99.4754 70.4968 101.526 74.0358 103.576 77.5772C105.547 80.9826 107.538 84.3784 109.478 87.8005C111.087 90.6308 110.173 93.9933 107.461 95.5659C106.693 96.0145 106.256 95.9644 105.774 95.1125C101.896 88.2635 97.9861 81.4336 94.0384 74.6252C93.5348 73.7566 93.5061 73.1146 94.0456 72.2603ZM84.9425 74.8901C80.9805 81.689 77.0161 88.4854 73.0899 95.3034C72.6603 96.0527 72.1973 96.3629 71.3189 96.3343C69.2186 96.2675 67.1159 96.3128 64.7148 96.3128C66.1683 93.7976 67.4739 91.5376 68.7794 89.2753C71.4812 84.5932 74.1568 79.8968 76.8896 75.2362C78.5317 72.4345 81.6774 71.5014 84.3935 72.9142C85.5965 73.537 85.6299 73.7065 84.9425 74.8901ZM89.5298 80.1044C92.6851 85.5502 95.733 90.8074 98.9097 96.2866H80.2143C83.3386 90.8623 86.3698 85.5955 89.5298 80.1044ZM77.8849 102.854C85.797 102.914 93.709 102.93 101.623 102.923C102.445 102.921 102.919 103.179 103.313 103.906C104.309 105.749 105.385 107.548 106.545 109.565C106.015 109.605 105.745 109.646 105.476 109.646C97.8023 109.648 90.1289 109.662 82.4531 109.646C79.1355 109.636 76.67 107.262 76.5937 104.14C76.5698 103.171 76.8825 102.849 77.8849 102.856V102.854ZM57.662 95.6088C57.5164 95.8833 57.2133 96.2675 56.9746 96.2723C54.4804 96.3224 51.9863 96.3033 49.368 96.3033C49.5351 95.9119 49.6258 95.6184 49.7762 95.3559C55.2824 85.8198 60.7289 76.248 66.3259 66.7644C71.5194 57.9634 83.0021 55.3503 91.6063 60.87C91.8999 61.0586 92.172 61.2829 92.5395 61.5549C91.3461 63.6263 90.1814 65.6452 88.9833 67.7262C88.6754 67.6021 88.42 67.5281 88.1909 67.4016C81.6917 63.8316 74.627 65.7884 70.9466 72.1696C67.0562 78.9208 63.1443 85.6576 59.2635 92.4158C58.6716 93.4468 58.2229 94.5564 57.662 95.6088ZM112.906 123.041C102.325 123.041 91.7447 123.045 81.1643 123.041C71.5672 123.033 64.2303 116.776 62.6789 107.285C61.9963 103.112 62.1324 102.945 66.2352 102.945C67.0323 102.945 67.8319 103.007 68.6219 102.93C69.6506 102.828 69.9848 103.171 69.9943 104.243C70.0516 109.882 73.8179 114.605 79.2692 115.924C80.1881 116.146 81.1547 116.261 82.0975 116.266C90.253 116.292 98.4061 116.28 106.559 116.277C107.077 116.277 107.626 116.349 108.103 116.203C109.796 115.683 110.688 116.397 111.414 117.9C112.235 119.599 113.309 121.174 114.414 123.041H112.906ZM112.779 107.052C111.891 105.326 110.867 103.67 109.948 102.071C111.199 101.059 112.457 100.217 113.509 99.1646C117.288 95.3821 118.063 89.3827 115.407 84.7483C111.335 77.6488 107.235 70.5636 103.13 63.4831C102.655 62.6598 102.11 61.8675 101.523 61.1206C101.106 60.5884 100.998 60.1851 101.38 59.548C102.583 57.5458 103.702 55.4911 104.984 53.2288C106.831 56.4099 108.545 59.3571 110.252 62.309C114.106 68.9838 117.97 75.6538 121.808 82.3381C126.999 91.373 123.73 102.758 114.615 107.577C113.71 108.056 113.266 107.994 112.779 107.052Z" fill="#71C6A5"/>
<defs>
<linearGradient id="paint0_linear_2744_24102" x1="90.0977" y1="229.172" x2="229.098" y2="90.1719" gradientUnits="userSpaceOnUse">
<stop stop-color="#2499DE"/>
<stop offset="1" stop-color="#32D3FA"/>
</linearGradient>
<linearGradient id="paint1_linear_2744_24102" x1="90.334" y1="228.828" x2="229.334" y2="89.8281" gradientUnits="userSpaceOnUse">
<stop stop-color="#2499DE"/>
<stop offset="1" stop-color="#32D3FA"/>
</linearGradient>
</defs>
</svg>
