<svg width="349" height="83" viewBox="0 0 349 83" fill="none" xmlns="http://www.w3.org/2000/svg">
<path d="M39.6499 1.44405C38.9776 1.42765 38.2889 1.41125 37.6166 1.39485V1.26367H0V11.4795H13.7906C15.6763 11.4795 17.5621 11.4795 19.4478 11.4795H27.4336C30.9591 11.4795 34.4682 11.5123 37.9774 11.5943C49.0951 11.8403 56.5397 19.0389 56.3593 28.894C56.1953 38.4539 48.8327 45.0459 37.879 45.1607C36.6491 45.1607 35.4029 45.1607 34.1731 45.1771H0V55.3765H37.6166V55.3437C38.0921 55.3437 38.5677 55.3437 39.0432 55.3437C54.8835 55.1305 66.4768 44.1604 66.7064 29.2056C66.9523 14.0048 55.4247 1.95238 39.6499 1.44405V1.44405Z" fill="#32D3FA"/>
<path d="M3.95188 67.1338H0V71.1021V73.1518V77.1365H3.95188H33.6647H37.6166V73.1518V71.1021V67.1338H33.6647H3.95188Z" fill="#18E5AB"/>
<path d="M33.6647 33.451H37.6166V29.3843V27.2854V23.2188H33.6647H3.95188H0V27.2854V29.3843V33.451H3.95188H33.6647Z" fill="#2499DE"/>
<path d="M120.569 18.526C120.569 28.141 113.457 34.0761 101.971 34.0761H92.108V46.6896H83.9922V2.98828H101.971C113.457 2.98828 120.569 8.86138 120.569 18.526ZM112.391 18.526C112.391 13.037 108.711 9.85263 101.587 9.85263H92.0956V27.2117H101.587C108.699 27.2117 112.391 24.0274 112.391 18.5384V18.526Z" fill="#333333"/>
<path d="M154.915 27.1382V46.6781H147.543V42.6264C145.672 45.501 142.054 47.1241 137.06 47.1241C129.44 47.1241 124.633 42.9362 124.633 37.1374C124.633 31.3386 128.375 27.2126 138.498 27.2126H147.109V26.717C147.109 22.1573 144.359 19.4809 138.808 19.4809C135.066 19.4809 131.187 20.7324 128.697 22.7892L125.636 17.1143C129.193 14.3636 134.372 12.9883 139.749 12.9883C149.364 12.9883 154.915 17.548 154.915 27.163V27.1382ZM147.109 36.2577V32.3918H139.055C133.752 32.3918 132.315 34.3867 132.315 36.8276C132.315 39.6403 134.682 41.4493 138.684 41.4493C142.686 41.4493 145.796 39.7022 147.109 36.2701V36.2577Z" fill="#333333"/>
<path d="M194.874 13.347L179.262 49.3663C176.201 56.9245 171.951 59.2291 166.4 59.2291C163.092 59.2291 159.598 58.1016 157.467 56.1687L160.589 50.4195C162.088 51.8568 164.207 52.7241 166.338 52.7241C169.089 52.7241 170.712 51.4107 172.212 48.1024L172.769 46.789L158.223 13.3223H166.338L176.821 37.9794L187.378 13.3223H194.874V13.347Z" fill="#333333"/>
<path d="M236.458 18.526C236.458 28.141 229.345 34.0761 217.859 34.0761H207.997V46.6896H199.881V2.98828H217.859C229.345 2.98828 236.458 8.86138 236.458 18.526V18.526ZM228.28 18.526C228.28 13.037 224.6 9.85263 217.475 9.85263H207.984V27.2117H217.475C224.588 27.2117 228.28 24.0274 228.28 18.5384V18.526Z" fill="#333333"/>
<path d="M243.83 0.363281H251.636V46.679H243.83V0.363281Z" fill="#333333"/>
<path d="M289.154 27.1382V46.6781H281.781V42.6264C279.91 45.501 276.292 47.1241 271.299 47.1241C263.679 47.1241 258.871 42.9362 258.871 37.1374C258.871 31.3386 262.613 27.2126 272.736 27.2126H281.347V26.717C281.347 22.1573 278.597 19.4809 273.046 19.4809C269.304 19.4809 265.426 20.7324 262.935 22.7892L259.875 17.1143C263.431 14.3636 268.61 12.9883 273.988 12.9883C283.603 12.9883 289.154 17.548 289.154 27.163V27.1382ZM281.347 36.2577V32.3918H273.294C267.991 32.3918 266.553 34.3867 266.553 36.8276C266.553 39.6403 268.92 41.4493 272.922 41.4493C276.924 41.4493 280.034 39.7022 281.347 36.2701V36.2577Z" fill="#333333"/>
<path d="M331.357 27.584V46.6902H323.551V28.5876C323.551 22.6526 320.614 19.7904 315.621 19.7904C310.07 19.7904 306.316 23.1606 306.316 29.8391V46.6902H298.51V13.3473H305.944V17.6592C308.509 14.5987 312.561 12.9756 317.43 12.9756C325.422 12.9756 331.357 17.5353 331.357 27.584Z" fill="#333333"/>
<path d="M334.812 6.49512H340.363V7.54831H338.257V12.4921H336.931V7.54831H334.825V6.49512H334.812ZM347.141 12.4921V8.70063L345.097 11.823H344.489L342.445 8.77497V12.4921H341.181V6.49512H342.247L344.787 10.3362L347.29 6.49512H348.355V12.4921H347.116H347.141Z" fill="#333333"/>
<path d="M91.3626 75.3506L88.4066 67.6788H86.3592L83.4032 75.3506H85.255L85.7381 74.0509H89.0277L89.5108 75.3506H91.3626ZM88.5791 72.6131H86.1867L87.3829 69.312L88.5791 72.6131ZM100.454 75.3506C101.926 75.3506 102.685 74.4304 102.685 73.2687C102.685 72.3141 102.041 71.5204 101.213 71.3939C101.938 71.2444 102.536 70.5888 102.536 69.6341C102.536 68.6104 101.788 67.6788 100.328 67.6788H96.2904V75.3506H100.454ZM99.971 70.7268H97.9237V69.1165H99.971C100.523 69.1165 100.868 69.4501 100.868 69.9216C100.868 70.4162 100.523 70.7268 99.971 70.7268ZM100.04 73.9128H97.9237V72.1645H100.04C100.673 72.1645 101.018 72.5556 101.018 73.0387C101.018 73.5908 100.65 73.9128 100.04 73.9128ZM108.012 75.4886C110.347 75.4886 111.474 74.1774 111.474 72.2796V67.6788H109.806V72.2335C109.806 73.3032 109.197 74.0394 108.012 74.0394C106.827 74.0394 106.206 73.3032 106.206 72.2335V67.6788H104.55V72.2796C104.55 74.1774 105.677 75.4886 108.012 75.4886ZM116.367 75.4886C118.426 75.4886 119.438 74.4304 119.438 73.0272C119.438 70.1632 115.032 70.9798 115.032 69.7721C115.032 69.312 115.423 69.013 116.114 69.013C116.896 69.013 117.724 69.2775 118.345 69.8526L119.254 68.6334C118.495 67.9318 117.482 67.5637 116.263 67.5637C114.457 67.5637 113.353 68.6219 113.353 69.8986C113.353 72.7856 117.77 71.854 117.77 73.1882C117.77 73.6368 117.344 74.0394 116.436 74.0394C115.377 74.0394 114.538 73.5563 113.997 72.9927L113.1 74.2694C113.825 74.994 114.883 75.4886 116.367 75.4886ZM122.792 75.3506V67.6788H121.158V75.3506H122.792ZM131.814 75.3506V67.6788H130.181V72.4981L126.627 67.6788H124.947V75.3506H126.581V70.3472L130.238 75.3506H131.814ZM139.388 75.3506V73.9128H135.593V72.1645H139.308V70.7268H135.593V69.1165H139.388V67.6788H133.959V75.3506H139.388ZM144.035 75.4886C146.094 75.4886 147.106 74.4304 147.106 73.0272C147.106 70.1632 142.701 70.9798 142.701 69.7721C142.701 69.312 143.092 69.013 143.782 69.013C144.564 69.013 145.392 69.2775 146.014 69.8526L146.922 68.6334C146.163 67.9318 145.151 67.5637 143.932 67.5637C142.126 67.5637 141.022 68.6219 141.022 69.8986C141.022 72.7856 145.438 71.854 145.438 73.1882C145.438 73.6368 145.013 74.0394 144.104 74.0394C143.046 74.0394 142.206 73.5563 141.666 72.9927L140.769 74.2694C141.493 74.994 142.551 75.4886 144.035 75.4886ZM151.565 75.4886C153.623 75.4886 154.636 74.4304 154.636 73.0272C154.636 70.1632 150.23 70.9798 150.23 69.7721C150.23 69.312 150.621 69.013 151.311 69.013C152.094 69.013 152.922 69.2775 153.543 69.8526L154.452 68.6334C153.692 67.9318 152.68 67.5637 151.461 67.5637C149.655 67.5637 148.551 68.6219 148.551 69.8986C148.551 72.7856 152.968 71.854 152.968 73.1882C152.968 73.6368 152.542 74.0394 151.634 74.0394C150.575 74.0394 149.736 73.5563 149.195 72.9927L148.298 74.2694C149.023 74.994 150.081 75.4886 151.565 75.4886ZM167.546 75.3506L169.731 67.6788H167.902L166.557 73.2227L165.107 67.6788H163.831L162.37 73.2227L161.024 67.6788H159.195L161.392 75.3506H163.129L164.463 70.0827L165.809 75.3506H167.546ZM177.783 75.3506L174.827 67.6788H172.78L169.824 75.3506H171.675L172.158 74.0509H175.448L175.931 75.3506H177.783ZM174.999 72.6131H172.607L173.803 69.312L174.999 72.6131ZM185.347 75.3506L183.61 72.4291C184.438 72.2335 185.301 71.4974 185.301 70.1517C185.301 68.7254 184.311 67.6788 182.713 67.6788H179.124V75.3506H180.757V72.6246H181.954L183.46 75.3506H185.347ZM182.483 71.1869H180.757V69.1165H182.483C183.127 69.1165 183.621 69.5076 183.621 70.1402C183.621 70.7958 183.127 71.1869 182.483 71.1869ZM193.37 75.3506L191.633 72.4291C192.461 72.2335 193.324 71.4974 193.324 70.1517C193.324 68.7254 192.335 67.6788 190.736 67.6788H187.148V75.3506H188.781V72.6246H189.977L191.484 75.3506H193.37ZM190.506 71.1869H188.781V69.1165H190.506C191.15 69.1165 191.645 69.5076 191.645 70.1402C191.645 70.7958 191.15 71.1869 190.506 71.1869ZM196.804 75.3506V67.6788H195.171V75.3506H196.804ZM202.606 75.4886C204.918 75.4886 206.609 73.8323 206.609 71.5204C206.609 69.2085 204.918 67.5522 202.606 67.5522C200.283 67.5522 198.592 69.2085 198.592 71.5204C198.592 73.8323 200.283 75.4886 202.606 75.4886ZM202.606 74.0394C201.18 74.0394 200.271 72.9467 200.271 71.5204C200.271 70.0827 201.18 69.0015 202.606 69.0015C204.021 69.0015 204.93 70.0827 204.93 71.5204C204.93 72.9467 204.021 74.0394 202.606 74.0394ZM214.61 75.3506L212.873 72.4291C213.702 72.2335 214.564 71.4974 214.564 70.1517C214.564 68.7254 213.575 67.6788 211.976 67.6788H208.388V75.3506H210.021V72.6246H211.217L212.724 75.3506H214.61ZM211.746 71.1869H210.021V69.1165H211.746C212.39 69.1165 212.885 69.5076 212.885 70.1402C212.885 70.7958 212.39 71.1869 211.746 71.1869ZM222.735 75.4886C224.794 75.4886 225.806 74.4304 225.806 73.0272C225.806 70.1632 221.401 70.9798 221.401 69.7721C221.401 69.312 221.792 69.013 222.482 69.013C223.264 69.013 224.093 69.2775 224.714 69.8526L225.622 68.6334C224.863 67.9318 223.851 67.5637 222.632 67.5637C220.826 67.5637 219.722 68.6219 219.722 69.8986C219.722 72.7856 224.139 71.854 224.139 73.1882C224.139 73.6368 223.713 74.0394 222.804 74.0394C221.746 74.0394 220.907 73.5563 220.366 72.9927L219.469 74.2694C220.193 74.994 221.252 75.4886 222.735 75.4886ZM231.173 75.4886C233.485 75.4886 235.176 73.8323 235.176 71.5204C235.176 69.2085 233.485 67.5522 231.173 67.5522C228.85 67.5522 227.159 69.2085 227.159 71.5204C227.159 73.8323 228.85 75.4886 231.173 75.4886ZM231.173 74.0394C229.747 74.0394 228.838 72.9467 228.838 71.5204C228.838 70.0827 229.747 69.0015 231.173 69.0015C232.588 69.0015 233.497 70.0827 233.497 71.5204C233.497 72.9467 232.588 74.0394 231.173 74.0394ZM241.774 75.3506V73.9128H238.531V67.6788H236.886V75.3506H241.774ZM246.688 75.4886C249.023 75.4886 250.15 74.1774 250.15 72.2796V67.6788H248.482V72.2335C248.482 73.3032 247.873 74.0394 246.688 74.0394C245.503 74.0394 244.882 73.3032 244.882 72.2335V67.6788H243.226V72.2796C243.226 74.1774 244.353 75.4886 246.688 75.4886ZM255.722 75.3506V69.1165H257.953V67.6788H251.834V69.1165H254.077V75.3506H255.722ZM261.266 75.3506V67.6788H259.633V75.3506H261.266ZM267.068 75.4886C269.379 75.4886 271.07 73.8323 271.07 71.5204C271.07 69.2085 269.379 67.5522 267.068 67.5522C264.744 67.5522 263.053 69.2085 263.053 71.5204C263.053 73.8323 264.744 75.4886 267.068 75.4886ZM267.068 74.0394C265.641 74.0394 264.733 72.9467 264.733 71.5204C264.733 70.0827 265.641 69.0015 267.068 69.0015C268.482 69.0015 269.391 70.0827 269.391 71.5204C269.391 72.9467 268.482 74.0394 267.068 74.0394ZM279.716 75.3506V67.6788H278.082V72.4981L274.528 67.6788H272.849V75.3506H274.482V70.3472L278.14 75.3506H279.716Z" fill="#333333"/>
</svg>
