<svg width="155" height="60" viewBox="0 0 155 60" fill="none" xmlns="http://www.w3.org/2000/svg">
<g clip-path="url(#clip0_2227_15486)">
<path d="M59.8957 27.6053C59.9338 27.4069 59.9229 27.2567 59.9883 27.1387C60.9093 25.4384 61.9011 23.7757 62.7566 22.0433C63.525 20.4771 64.9854 19.3453 65.5031 17.6022C65.6993 16.9478 65.3941 16.8191 65.0345 16.567C64.6094 16.2666 64.2116 16.1915 63.8792 16.7011C63.3833 17.4734 62.8493 18.2243 62.3915 19.0128C60.8384 21.6624 59.3235 24.3335 57.7595 26.9778C57.4816 27.4444 57.0783 28.0613 56.6315 28.1578C55.0893 28.4903 53.4981 28.6244 51.9286 28.8336C51.8742 28.7693 51.8197 28.7049 51.7652 28.6405C52.7079 27.2353 53.5798 25.7763 54.6207 24.4408C55.2201 23.6631 55.4054 22.4616 54.7242 22.0433C53.7542 21.4533 53.3455 22.3973 53.0294 22.8424C51.7706 24.6393 50.6153 26.5058 49.52 28.4045C49.1222 29.0964 48.6481 29.3861 47.8961 29.4451C45.918 29.6006 43.9453 29.7723 41.9726 29.96C40.9372 30.0619 40.6212 30.8343 41.2315 31.6656C41.6456 32.2395 42.1252 32.1323 42.741 32.0089C44.3322 31.6817 45.9507 31.4833 47.8035 31.1936C47.2258 32.2342 46.9316 33.0763 46.3812 33.7038C44.5883 35.7634 42.7192 37.7641 40.8282 39.7433C40.5776 40.0007 40.0326 39.99 39.6239 40.1026C39.6239 39.6789 39.4822 39.1962 39.6403 38.8422C40.1471 37.7051 40.8119 36.6431 41.3296 35.5113C41.602 34.9053 42.1742 34.1973 41.5476 33.5643C40.6647 32.6686 39.9618 32.9851 39.3569 34.1329C38.5613 35.6401 37.8093 37.2223 36.3379 38.2683C36.0546 38.4667 35.7058 38.5847 35.2916 38.7832C35.0083 36.2998 36.169 33.9076 34.7467 31.73C35.6622 30.1853 36.594 28.6405 37.4932 27.0743C37.7929 26.538 37.9237 25.9051 38.2616 25.3902C39.1989 23.9527 40.2233 22.5635 41.1824 21.1368C42.4412 19.2542 43.7055 17.3769 44.9044 15.4567C45.6836 14.2016 46.343 12.8714 47.0678 11.5788C47.3784 11.021 47.095 10.5651 46.6427 10.4095C46.2613 10.2808 45.5965 10.3237 45.3458 10.5704C44.7245 11.198 44.196 11.9489 43.7491 12.7213C42.305 15.21 41.0026 17.7845 39.4768 20.2196C37.6621 23.116 35.7058 25.9319 33.7331 28.7371C32.5506 30.4159 31.161 31.9606 29.9839 33.6394C28.1148 36.2944 25.9568 38.5686 22.9106 39.9524C20.6927 40.9608 18.562 41.5133 16.2078 40.2903C14.8128 39.5663 13.5431 38.8261 12.96 37.3082C12.8728 37.0722 12.8456 36.686 12.9818 36.5251C13.2706 36.1657 13.6521 35.8385 14.0608 35.624C16.7964 34.1651 19.6355 32.9314 22.0006 30.8235C24.1912 28.8712 26.6652 27.2353 28.9213 25.358C30.8504 23.7489 32.6596 22.0003 34.5015 20.2947C36.2998 18.632 37.7657 16.7118 38.9209 14.5717C39.8364 12.8661 41.0898 11.3696 41.7655 9.50308C42.4685 7.55071 43.0407 5.65198 42.8064 3.5548C42.5666 1.43617 39.9454 -0.0656516 38.3488 0.014803C36.6485 0.100621 35.2698 0.862257 33.8148 1.6078C30.7359 3.17398 28.3818 5.52862 26.1421 8.03344C25.1994 9.09008 24.3492 10.2325 23.4937 11.3643C22.4365 12.7642 21.3684 14.1587 20.3875 15.6123C19.5374 16.8673 18.7909 18.1975 18.017 19.5009C16.0062 22.8746 13.9572 26.2269 12.0118 29.6382C10.486 32.3146 9.15087 35.093 7.63049 37.7694C6.6823 39.4483 5.58152 41.0413 4.49164 42.6343C3.82136 43.6051 3.0203 44.4847 2.32278 45.4394C1.72879 46.244 1.11301 47.0539 0.671609 47.9389C0.284701 48.7166 0.66071 49.7464 1.32554 49.9556C2.16474 50.2238 2.49716 49.5104 2.81867 48.9633C3.69602 47.4293 4.51343 45.8578 5.39079 44.3238C5.89213 43.4603 6.50791 42.6611 7.00381 41.7975C7.84302 40.3279 8.62228 38.8261 9.43969 37.3403C9.67946 36.9059 9.95193 36.4929 10.219 36.0692C10.7094 35.2753 11.2652 34.5137 11.6903 33.6823C12.3933 32.3253 12.9546 30.8879 13.6957 29.5523C14.5185 28.0559 15.5049 26.6506 16.3768 25.1756C17.4721 23.3198 18.453 21.3889 19.6028 19.5653C21.0742 17.2374 22.6218 14.9472 24.2239 12.6944C25.0795 11.4983 26.0985 10.4095 27.0739 9.29926C27.875 8.38744 28.6979 7.49708 29.5425 6.62817C30.0439 6.11326 30.5779 5.60908 31.161 5.19071C31.8858 4.68117 32.7359 4.33789 33.4279 3.79617C34.8666 2.6698 36.4687 1.95108 38.2943 1.95644C40.425 1.9618 41.3514 3.59771 41.019 5.29798C40.2724 9.11689 38.8719 12.6944 36.2725 15.7195C34.7903 17.4359 33.4497 19.2971 31.8095 20.8472C28.9431 23.5612 25.9623 26.1733 22.8943 28.662C20.9325 30.2496 18.7473 31.5798 16.6165 32.9636C15.3414 33.7896 13.9899 34.503 12.6657 35.2485C11.9028 35.6776 11.5922 36.3052 11.6086 37.1633C11.6358 38.8475 12.5785 39.9149 13.8428 40.9125C16.8672 43.3047 20.2894 43.3798 23.6245 41.5991C23.9296 41.4382 24.2403 41.2826 24.589 41.1056C24.698 41.3738 24.7416 41.5562 24.8397 41.6956C25.0631 42.0174 25.2647 42.4143 25.5808 42.586C25.7225 42.6664 26.2184 42.3446 26.3928 42.0979C27.4173 40.6497 28.3273 39.1264 29.4117 37.7212C30.3436 36.509 31.4335 35.4094 32.4906 34.2938C32.6596 34.1114 33.0083 34.09 33.2754 33.9934C33.3517 34.2294 33.5097 34.4654 33.5042 34.7014C33.4715 35.978 33.4388 37.2545 33.3353 38.5257C33.259 39.4697 33.6732 40.1294 34.4143 40.6283C35.1009 41.0842 35.7875 40.9608 36.4469 40.5371C36.7139 40.3654 36.9973 40.226 37.3243 40.0383C37.4823 40.4513 37.5858 40.757 37.7166 41.052C38.3161 42.3875 39.4168 42.8863 40.6429 42.114C41.7601 41.406 42.6865 40.4083 43.6837 39.5233C43.9943 39.2444 44.2559 38.9119 44.5447 38.6062C44.73 39.0621 44.7409 39.4107 44.681 39.7486C44.4848 40.8482 44.9807 41.7224 46.0324 42.1408C47.1931 42.6021 48.0214 41.8887 48.6808 41.2343C50.2066 39.7218 51.5853 38.0698 53.1275 36.3534C52.6643 37.3511 52.2992 38.2361 51.8524 39.0889C50.926 40.8482 49.9396 42.5753 49.0241 44.3399C48.8879 44.592 49.0078 44.9728 49.0078 45.2893C49.3347 45.2463 49.7707 45.3268 49.9778 45.1444C51.3238 44.0073 52.1684 42.527 52.8442 40.9286C53.3945 39.636 54.0049 38.3648 54.637 37.1043C55.1166 36.155 55.6887 35.2539 56.1846 34.3099C56.8331 33.0923 57.4925 31.8748 58.0647 30.6197C58.5006 29.6811 59.2581 29.3432 60.2063 29.2144C61.5141 29.0321 62.8274 28.8497 64.1353 28.6352C67.0126 28.1578 69.8953 27.7019 72.7617 27.1548C73.6118 26.9939 74.6145 26.9832 75.312 25.9694C70.0261 25.9963 65.0345 27.1923 59.8957 27.6053ZM46.7354 39.9578C46.5555 38.5901 46.8498 37.3672 47.4057 36.214C48.065 34.8516 48.8116 33.5322 49.5091 32.1913C49.9396 31.3653 50.5554 30.9093 51.5526 30.8074C52.757 30.6894 53.934 30.373 55.1928 30.1263C54.9531 32.0464 48.4574 39.5448 46.7354 39.9578ZM154.061 15.3119C153.822 15.151 153.255 15.1349 153.07 15.3012C152.601 15.7356 152.263 16.3095 151.871 16.8191C150.35 18.7983 148.835 20.7828 147.304 22.7513C147.168 22.9229 146.933 23.1053 146.726 23.1321C145.391 23.3037 144.051 23.4378 142.547 23.6041C142.857 22.9336 143.086 22.4241 143.321 21.9199C143.697 21.1153 143.538 20.4288 142.825 20.0641C142.1 19.694 141.762 20.3162 141.451 20.7453C140.688 21.7965 140.002 22.9014 139.266 23.9688C139.157 24.1297 138.95 24.2692 138.765 24.3174C137.975 24.532 137.179 24.709 136.127 24.9557C136.743 24.0814 137.217 23.4056 137.686 22.7298C138.389 21.7053 139.659 20.9973 139.669 19.5813C139.669 19.1898 139.446 18.6749 139.146 18.4443C138.966 18.3048 138.269 18.4764 138.089 18.7124C136.945 20.2679 135.898 21.8931 134.776 23.4646C133.866 24.7412 133.059 26.1089 131.326 26.5433C130.291 26.8062 130.166 27.2943 130.591 28.2973C130.689 28.5172 130.716 28.8819 130.591 29.0589C128.88 31.5208 127.228 34.031 124.874 35.9887C124.041 36.6913 123.212 36.7986 122.259 36.1979C121.011 35.4041 120.362 35.4309 119.191 36.3213C118.46 36.8737 117.736 37.4262 116.907 38.0591C117.425 35.7903 118.558 33.9827 119.926 32.2771C121.054 30.8718 122.171 29.4558 123.25 28.0076C124.253 26.656 125.179 25.2453 126.182 23.8883C126.967 22.821 127.844 21.818 128.64 20.756C129.425 19.7047 130.16 18.6266 130.896 17.5432C131.141 17.1838 131.37 16.7923 131.506 16.3793C131.702 15.7946 131.528 15.2261 130.863 15.1671C130.454 15.1349 129.893 15.3655 129.615 15.6713C129.005 16.3524 128.542 17.1677 127.997 17.9079C126.302 20.2143 124.596 22.5206 122.885 24.8163C121.725 26.361 120.406 27.8092 119.403 29.4451C117.834 32.025 115.572 33.7574 112.918 35.0447C111.583 35.6937 110.166 36.1282 109.066 34.5405C108.924 34.3367 108.641 34.149 108.395 34.1114C108.03 34.0524 107.523 33.9934 107.295 34.1865C106.188 35.0983 104.826 35.1627 103.518 35.3826C102.875 35.4899 102.559 35.7366 102.488 36.3642C102.445 36.7664 102.428 37.217 102.238 37.5603C101.3 39.2659 99.7471 40.2421 97.9379 40.8589C97.2459 41.0949 96.8971 40.7516 97.0715 40.0704C97.3766 38.869 97.9107 37.7963 99.066 37.1419C99.7798 36.7343 100.57 36.4232 101.197 35.919C101.551 35.6347 101.905 34.9535 101.785 34.6103C101.616 34.1222 101.017 33.7843 100.374 34.2241C99.2185 35.0179 98.0306 35.7634 96.908 36.6002C95.6219 37.5549 95.1642 38.928 95.2187 40.4513C95.3059 42.9132 97.3385 43.6641 98.9134 42.7254C99.7635 42.2213 100.565 41.642 101.393 41.1003C101.812 40.8213 102.238 40.5478 102.51 40.3708C102.788 41.2612 102.935 42.0711 103.289 42.7844C103.791 43.7982 104.81 43.9537 105.785 43.3583C107.97 42.0174 109.267 40.0704 109.758 37.9035C111.796 37.2545 113.665 36.6592 115.354 36.1228C115.147 36.9917 114.831 38.0591 114.657 39.1533C114.537 39.9149 114.962 40.4995 115.654 40.8911C116.281 41.2451 116.684 41.0144 117.147 40.5478C117.915 39.7701 118.76 39.0621 119.588 38.3433C120.106 37.8874 120.586 37.7104 121.354 38.0752C123.681 39.1854 124.902 38.8529 126.667 36.8844C127.239 36.2462 127.839 35.6293 128.427 35.0018C128.564 35.4845 128.509 35.8332 128.476 36.1818C128.351 37.7104 129.468 38.7885 130.743 38.3326C131.185 38.1717 131.599 37.8982 131.975 37.6085C132.503 37.2009 132.983 36.7343 133.528 36.2515C133.621 36.45 133.67 36.5197 133.691 36.6002C134.236 38.7778 135.419 39.1533 137.081 37.6514C137.893 36.922 138.661 36.1443 139.484 35.3504C139.544 35.5864 139.582 35.7903 139.648 35.9833C140.274 37.8928 141.321 38.7778 143.315 37.453C144.334 36.7772 145.146 35.7795 145.969 34.857C146.171 34.6263 146.192 34.0042 146.013 33.7467C145.735 33.3337 145.206 33.0763 144.688 33.5375C144.247 33.9291 143.849 34.3743 143.402 34.7658C142.928 35.1842 142.421 35.5703 141.925 35.9726C141.844 35.9029 141.767 35.8332 141.686 35.7581C141.686 35.3558 141.566 34.8999 141.708 34.5513C142.176 33.4303 142.65 32.2985 143.293 31.2687C144.269 29.6918 145.391 28.1953 146.448 26.6667C146.519 26.5702 146.585 26.4683 146.666 26.3878C147.577 25.4492 148.568 24.5642 149.397 23.5558C150.606 22.0915 151.734 20.5575 152.835 19.0128C153.467 18.1278 154.012 17.1784 154.492 16.213C154.595 16.0145 154.312 15.4782 154.061 15.3119ZM105.431 41.2719C105.289 41.3631 104.995 41.3523 104.853 41.2719C104.766 41.2236 104.788 40.9179 104.826 40.7409C105.229 38.9763 106.526 37.9303 108.019 36.9327C108.346 38.7242 106.559 40.5424 105.431 41.2773V41.2719ZM130.422 35.9136C130.825 32.6686 132.607 30.137 134.405 27.6268C135.125 26.6184 135.561 26.5326 137.522 26.4897C136.874 29.3593 131.931 36.0102 130.422 35.9136ZM135.626 35.8707C135.631 34.326 136.253 33.0119 137.065 31.7514C137.947 30.3676 138.808 28.9677 139.691 27.5785C140.067 26.9832 140.421 26.361 140.896 25.8407C141.141 25.5672 141.599 25.4223 141.991 25.3365C143.086 25.0952 144.198 24.9182 145.413 24.6929C144.508 26.8008 136.678 35.7366 135.626 35.8707ZM112.15 11.0317C110.815 8.68244 108.602 7.87789 106.128 7.62044C102.875 7.28253 99.6599 7.64726 96.4339 8.2158C93.3277 8.76289 90.3033 9.55671 87.4533 10.8547C84.8921 12.0186 82.3853 13.3488 80.0094 14.8399C78.6471 15.6981 77.5626 16.9961 76.4019 18.1385C75.8842 18.6481 75.8297 19.2971 76.2439 19.9407C76.451 20.2572 76.6308 20.6004 76.8706 20.8901C77.0013 21.0456 77.2575 21.2119 77.4318 21.1851C77.6062 21.1636 77.8841 20.9115 77.8841 20.756C77.8787 20.0104 77.797 19.2595 77.7479 18.6642C78.2057 18.3209 78.5272 18.1171 78.8051 17.8596C79.4209 17.2803 79.9168 16.5294 80.6306 16.1164C83.0556 14.7058 85.4534 13.1772 88.0418 12.1366C90.8101 11.0263 93.7419 10.2272 96.6737 9.65862C99.0769 9.19198 101.589 9.28317 104.047 9.10617C105.927 8.97744 107.627 9.54062 109.251 10.3773C110.308 10.9244 110.935 12.1527 110.51 13.2254C109.927 14.7058 109.305 16.2237 108.395 17.5163C106.837 19.7262 105.109 21.8233 103.333 23.8723C102.287 25.0791 101.006 26.0874 99.8398 27.1977C98.0633 28.8765 96.3195 30.5929 94.5157 32.2449C92.2433 34.3153 89.9382 36.3534 87.6168 38.3755C84.8866 40.757 82.1674 43.1545 79.3664 45.4502C76.0858 48.1427 73.4429 51.3394 71.3394 54.9599C70.7836 55.92 70.4076 57.0893 70.8163 58.3014C71.0724 59.0684 71.5247 59.1435 72.2658 58.8485C71.7645 57.7383 72.1078 56.0541 72.7999 55.3032C73.4592 54.5791 74.2004 53.8389 74.56 52.97C75.3011 51.1893 76.827 50.1165 78.0749 48.8078C79.2465 47.5849 80.6361 46.5658 81.9221 45.4448C83.2464 44.2863 84.5379 43.0955 85.8839 41.9584C87.5132 40.5746 89.2352 39.2927 90.8265 37.866C93.404 35.5596 95.9162 33.1782 98.4447 30.8182C100.298 29.0911 102.221 27.423 103.96 25.5833C106.412 22.9819 108.82 20.3162 110.64 17.2106C111.24 16.1915 111.818 15.1563 112.303 14.0836C112.755 13.0753 112.744 12.0776 112.15 11.0317ZM83.9439 23.2823C83.8894 23.2501 83.4916 23.7006 83.3608 23.9795C83.121 24.4837 82.963 25.0254 82.7723 25.5511C81.8132 28.1578 80.8813 30.7753 79.8895 33.3659C79.083 35.4684 78.1948 37.5334 77.3719 39.6253C76.9959 40.5907 77.1594 40.9447 78.1621 41.1539C78.8814 41.3094 79.2029 40.816 79.4372 40.1616C80.1783 38.1127 80.5979 35.9673 81.6606 33.9988C82.636 32.1859 83.2899 30.2013 83.9929 28.2543C84.4561 26.9778 84.7504 25.6476 85.17 24.1512C84.7613 23.8401 84.3798 23.5129 83.9439 23.2823ZM127.179 31.5744C127.07 31.0542 126.743 30.5822 126.575 30.0673C126.367 29.4397 125.855 29.3539 125.354 29.4504C125.092 29.4987 124.896 29.8581 124.526 30.2174C125.12 31.0381 125.61 31.789 126.182 32.4702C126.335 32.6579 126.733 32.6418 127.016 32.7223C127.081 32.3361 127.256 31.9284 127.179 31.5744Z" fill="white"/>
<path d="M59.8957 27.6054C59.9338 27.4069 59.9229 27.2567 59.9883 27.1387C60.9093 25.4384 61.901 23.7757 62.7566 22.0433C63.525 20.4771 64.9854 19.3453 65.5031 17.6022C65.6993 16.9478 65.3941 16.8191 65.0344 16.567C64.6094 16.2666 64.2116 16.1915 63.8792 16.7011C63.3833 17.4734 62.8492 18.2243 62.3915 19.0128C60.8384 21.6624 59.3235 24.3335 57.7595 26.9778C57.4816 27.4444 57.0783 28.0613 56.6315 28.1578C55.0893 28.4903 53.4981 28.6244 51.9286 28.8336C51.8742 28.7693 51.8197 28.7049 51.7652 28.6405C52.7079 27.2353 53.5798 25.7764 54.6207 24.4408C55.2201 23.6631 55.4054 22.4616 54.7242 22.0433C53.7542 21.4533 53.3455 22.3973 53.0294 22.8424C51.7706 24.6393 50.6153 26.5058 49.52 28.4045C49.1222 29.0964 48.6481 29.3861 47.8961 29.4451C45.918 29.6006 43.9453 29.7723 41.9726 29.96C40.9372 30.0619 40.6211 30.8343 41.2315 31.6656C41.6456 32.2395 42.1252 32.1323 42.741 32.0089C44.3322 31.6817 45.9507 31.4833 47.8035 31.1936C47.2258 32.2342 46.9315 33.0763 46.3812 33.7038C44.5883 35.7634 42.7192 37.7641 40.8282 39.7433C40.5776 40.0007 40.0326 39.99 39.6239 40.1026C39.6239 39.6789 39.4822 39.1962 39.6403 38.8422C40.147 37.7051 40.8119 36.6431 41.3296 35.5114C41.602 34.9053 42.1742 34.1973 41.5475 33.5644C40.6647 32.6686 39.9618 32.9851 39.3569 34.1329C38.5613 35.6401 37.8093 37.2224 36.3379 38.2683C36.0546 38.4667 35.7058 38.5847 35.2916 38.7832C35.0083 36.2998 36.169 33.9076 34.7467 31.73C35.6622 30.1853 36.594 28.6405 37.4932 27.0743C37.7929 26.538 37.9237 25.9051 38.2616 25.3902C39.1989 23.9527 40.2233 22.5635 41.1824 21.1368C42.4412 19.2542 43.7055 17.3769 44.9044 15.4567C45.6836 14.2016 46.343 12.8714 47.0678 11.5788C47.3784 11.021 47.095 10.5651 46.6427 10.4095C46.2613 10.2808 45.5964 10.3237 45.3458 10.5704C44.7245 11.198 44.1959 11.9489 43.7491 12.7213C42.305 15.21 41.0026 17.7845 39.4768 20.2196C37.6621 23.116 35.7058 25.9319 33.7331 28.7371C32.5506 30.4159 31.161 31.9606 29.9839 33.6394C28.1148 36.2944 25.9568 38.5686 22.9106 39.9524C20.6927 40.9608 18.562 41.5133 16.2078 40.2903C14.8128 39.5663 13.5431 38.8261 12.96 37.3082C12.8728 37.0722 12.8456 36.686 12.9818 36.5251C13.2706 36.1657 13.6521 35.8385 14.0608 35.624C16.7964 34.1651 19.6355 32.9314 22.0006 30.8235C24.1912 28.8712 26.6652 27.2353 28.9213 25.358C30.8504 23.7489 32.6596 22.0003 34.5015 20.2947C36.2998 18.632 37.7657 16.7118 38.9209 14.5717C39.8364 12.8661 41.0898 11.3696 41.7655 9.50308C42.4685 7.55071 43.0407 5.65199 42.8064 3.5548C42.5666 1.43617 39.9454 -0.0656516 38.3487 0.014803C36.6485 0.100621 35.2698 0.862258 33.8148 1.6078C30.7359 3.17399 28.3818 5.52862 26.1421 8.03344C25.1993 9.09008 24.3492 10.2325 23.4937 11.3643C22.4365 12.7642 21.3684 14.1587 20.3875 15.6123C19.5374 16.8673 18.7909 18.1975 18.017 19.5009C16.0062 22.8746 13.9572 26.2269 12.0118 29.6382C10.486 32.3146 9.15087 35.093 7.63049 37.7694C6.68229 39.4483 5.58152 41.0413 4.49164 42.6343C3.82136 43.6051 3.0203 44.4847 2.32278 45.4394C1.72879 46.244 1.11301 47.0539 0.671609 47.9389C0.284701 48.7166 0.66071 49.7464 1.32554 49.9556C2.16474 50.2238 2.49716 49.5104 2.81867 48.9633C3.69602 47.4293 4.51343 45.8578 5.39079 44.3238C5.89213 43.4603 6.50791 42.6611 7.00381 41.7975C7.84302 40.3279 8.62228 38.8261 9.43969 37.3404C9.67946 36.9059 9.95193 36.4929 10.219 36.0692C10.7094 35.2754 11.2652 34.5137 11.6903 33.6824C12.3933 32.3253 12.9546 30.8879 13.6957 29.5524C14.5185 28.0559 15.5049 26.6506 16.3768 25.1756C17.4721 23.3198 18.453 21.3889 19.6028 19.5653C21.0742 17.2374 22.6218 14.9472 24.2239 12.6944C25.0795 11.4983 26.0985 10.4095 27.0739 9.29926C27.875 8.38744 28.6979 7.49708 29.5425 6.62817C30.0439 6.11326 30.5779 5.60908 31.161 5.19071C31.8858 4.68117 32.7359 4.33789 33.4279 3.79617C34.8666 2.6698 36.4687 1.95108 38.2943 1.95644C40.425 1.9618 41.3514 3.59771 41.019 5.29799C40.2724 9.11689 38.8719 12.6944 36.2725 15.7195C34.7903 17.4359 33.4497 19.2971 31.8095 20.8472C28.9431 23.5612 25.9623 26.1733 22.8943 28.662C20.9325 30.2496 18.7473 31.5798 16.6165 32.9636C15.3414 33.7896 13.9899 34.503 12.6657 35.2485C11.9028 35.6776 11.5922 36.3052 11.6086 37.1633C11.6358 38.8475 12.5785 39.9149 13.8428 40.9125C16.8672 43.3047 20.2894 43.3798 23.6245 41.5991C23.9296 41.4382 24.2403 41.2826 24.589 41.1056C24.698 41.3738 24.7416 41.5562 24.8397 41.6956C25.0631 42.0174 25.2647 42.4143 25.5808 42.586C25.7225 42.6664 26.2184 42.3446 26.3928 42.0979C27.4173 40.6497 28.3273 39.1264 29.4117 37.7212C30.3436 36.509 31.4335 35.4094 32.4906 34.2938C32.6596 34.1114 33.0083 34.09 33.2754 33.9934C33.3516 34.2294 33.5097 34.4654 33.5042 34.7014C33.4715 35.978 33.4388 37.2545 33.3353 38.5257C33.259 39.4697 33.6732 40.1294 34.4143 40.6283C35.1009 41.0842 35.7875 40.9608 36.4469 40.5371C36.7139 40.3654 36.9973 40.226 37.3243 40.0383C37.4823 40.4513 37.5858 40.757 37.7166 41.052C38.316 42.3875 39.4168 42.8863 40.6429 42.114C41.7601 41.406 42.6865 40.4083 43.6837 39.5233C43.9943 39.2444 44.2559 38.9119 44.5447 38.6062C44.73 39.0621 44.7409 39.4107 44.681 39.7486C44.4848 40.8482 44.9807 41.7224 46.0324 42.1408C47.1931 42.6021 48.0214 41.8887 48.6808 41.2344C50.2066 39.7218 51.5853 38.0698 53.1275 36.3534C52.6643 37.3511 52.2992 38.2361 51.8524 39.0889C50.926 40.8482 49.9396 42.5753 49.0241 44.3399C48.8879 44.592 49.0078 44.9728 49.0078 45.2893C49.3347 45.2463 49.7707 45.3268 49.9778 45.1444C51.3238 44.0074 52.1684 42.527 52.8441 40.9286C53.3945 39.636 54.0049 38.3648 54.637 37.1044C55.1165 36.155 55.6887 35.2539 56.1846 34.3099C56.8331 33.0924 57.4925 31.8748 58.0647 30.6197C58.5006 29.6811 59.2581 29.3432 60.2063 29.2144C61.5141 29.0321 62.8274 28.8497 64.1353 28.6352C67.0126 28.1578 69.8953 27.7019 72.7617 27.1548C73.6118 26.9939 74.6145 26.9832 75.312 25.9694C70.0261 25.9963 65.0344 27.1924 59.8957 27.6054ZM46.7354 39.9578C46.5555 38.5901 46.8498 37.3672 47.4056 36.214C48.065 34.8516 48.8116 33.5322 49.5091 32.1913C49.9396 31.3653 50.5554 30.9093 51.5526 30.8074C52.757 30.6894 53.934 30.373 55.1928 30.1263C54.9531 32.0464 48.4574 39.5448 46.7354 39.9578Z" fill="white"/>
<path d="M154.062 15.3119C153.822 15.151 153.255 15.1349 153.07 15.3012C152.601 15.7356 152.263 16.3095 151.871 16.8191C150.351 18.7982 148.836 20.7828 147.305 22.7512C147.168 22.9229 146.934 23.1052 146.727 23.1321C145.392 23.3037 144.051 23.4378 142.547 23.6041C142.858 22.9336 143.087 22.4241 143.321 21.9199C143.697 21.1153 143.539 20.4288 142.825 20.0641C142.1 19.694 141.762 20.3162 141.452 20.7452C140.689 21.7965 140.002 22.9014 139.267 23.9688C139.158 24.1297 138.951 24.2692 138.765 24.3174C137.975 24.532 137.18 24.709 136.128 24.9557C136.744 24.0814 137.218 23.4056 137.686 22.7298C138.389 21.7053 139.659 20.9973 139.67 19.5813C139.67 19.1898 139.446 18.6749 139.147 18.4442C138.967 18.3048 138.269 18.4764 138.09 18.7124C136.945 20.2679 135.899 21.8931 134.776 23.4646C133.866 24.7412 133.06 26.1089 131.327 26.5433C130.291 26.8062 130.166 27.2942 130.591 28.2972C130.689 28.5172 130.717 28.8819 130.591 29.0589C128.88 31.5208 127.229 34.031 124.875 35.9887C124.041 36.6913 123.213 36.7986 122.259 36.1979C121.011 35.4041 120.363 35.4309 119.191 36.3212C118.461 36.8737 117.736 37.4262 116.908 38.0591C117.425 35.7902 118.559 33.9827 119.927 32.2771C121.055 30.8718 122.172 29.4558 123.251 28.0076C124.254 26.656 125.18 25.2453 126.183 23.8883C126.967 22.821 127.845 21.818 128.64 20.756C129.425 19.7047 130.161 18.6266 130.896 17.5432C131.142 17.1838 131.37 16.7922 131.507 16.3792C131.703 15.7946 131.528 15.2261 130.864 15.1671C130.455 15.1349 129.894 15.3655 129.616 15.6712C129.005 16.3524 128.542 17.1677 127.997 17.9079C126.303 20.2142 124.597 22.5206 122.886 24.8162C121.725 26.361 120.406 27.8092 119.404 29.4451C117.834 32.025 115.573 33.7574 112.919 35.0447C111.584 35.6937 110.167 36.1282 109.066 34.5405C108.924 34.3367 108.641 34.149 108.396 34.1114C108.031 34.0524 107.524 33.9934 107.295 34.1865C106.189 35.0983 104.826 35.1627 103.519 35.3826C102.876 35.4899 102.559 35.7366 102.489 36.3642C102.445 36.7664 102.429 37.217 102.238 37.5602C101.301 39.2659 99.7476 40.2421 97.9384 40.8589C97.2463 41.0949 96.8976 40.7516 97.0719 40.0704C97.3771 38.869 97.9112 37.7962 99.0664 37.1419C99.7803 36.7342 100.57 36.4232 101.197 35.919C101.551 35.6347 101.906 34.9535 101.786 34.6102C101.617 34.1222 101.017 33.7842 100.374 34.2241C99.219 35.0179 98.031 35.7634 96.9085 36.6002C95.6224 37.5549 95.1647 38.928 95.2191 40.4512C95.3063 42.9132 97.339 43.6641 98.9138 42.7254C99.764 42.2212 100.565 41.642 101.393 41.1002C101.813 40.8213 102.238 40.5478 102.51 40.3708C102.788 41.2612 102.936 42.0711 103.29 42.7844C103.791 43.7982 104.81 43.9537 105.786 43.3583C107.971 42.0174 109.268 40.0704 109.758 37.9035C111.796 37.2545 113.665 36.6592 115.355 36.1228C115.148 36.9917 114.832 38.0591 114.657 39.1532C114.537 39.9149 114.962 40.4995 115.654 40.8911C116.281 41.2451 116.684 41.0144 117.148 40.5478C117.916 39.7701 118.761 39.0621 119.589 38.3433C120.107 37.8874 120.586 37.7104 121.354 38.0752C123.681 39.1854 124.902 38.8529 126.668 36.8844C127.24 36.2462 127.839 35.6293 128.428 35.0018C128.564 35.4845 128.51 35.8332 128.477 36.1818C128.351 37.7104 129.469 38.7885 130.744 38.3326C131.185 38.1717 131.599 37.8982 131.975 37.6085C132.504 37.2009 132.983 36.7342 133.528 36.2515C133.621 36.45 133.67 36.5197 133.692 36.6002C134.237 38.7778 135.419 39.1532 137.081 37.6514C137.893 36.922 138.662 36.1442 139.485 35.3504C139.545 35.5864 139.583 35.7902 139.648 35.9833C140.275 37.8928 141.321 38.7778 143.316 37.453C144.335 36.7772 145.147 35.7795 145.969 34.857C146.171 34.6263 146.193 34.0042 146.013 33.7467C145.735 33.3337 145.206 33.0762 144.689 33.5375C144.247 33.9291 143.85 34.3742 143.403 34.7658C142.929 35.1842 142.422 35.5703 141.926 35.9726C141.844 35.9029 141.768 35.8332 141.686 35.7581C141.686 35.3558 141.566 34.8999 141.708 34.5512C142.177 33.4302 142.651 32.2985 143.294 31.2687C144.269 29.6918 145.392 28.1953 146.449 26.6667C146.52 26.5702 146.585 26.4682 146.667 26.3878C147.577 25.4492 148.569 24.5642 149.397 23.5558C150.607 22.0915 151.735 20.5575 152.836 19.0128C153.468 18.1278 154.013 17.1784 154.492 16.213C154.596 16.0145 154.312 15.4782 154.062 15.3119ZM105.431 41.2719C105.29 41.3631 104.995 41.3523 104.854 41.2719C104.766 41.2236 104.788 40.9179 104.826 40.7409C105.23 38.9762 106.527 37.9303 108.02 36.9327C108.347 38.7242 106.559 40.5424 105.431 41.2772V41.2719ZM130.422 35.9136C130.826 32.6686 132.607 30.137 134.406 27.6268C135.125 26.6184 135.561 26.5326 137.523 26.4897C136.874 29.3592 131.932 36.0102 130.422 35.9136ZM135.626 35.8707C135.632 34.326 136.253 33.0119 137.065 31.7514C137.948 30.3676 138.809 28.9677 139.692 27.5785C140.068 26.9832 140.422 26.361 140.896 25.8407C141.141 25.5672 141.599 25.4223 141.991 25.3365C143.087 25.0952 144.198 24.9182 145.414 24.6929C144.509 26.8008 136.678 35.7366 135.626 35.8707Z" fill="white"/>
<path d="M72.2604 58.8432C71.5248 59.1436 71.067 59.0685 70.8109 58.3015C70.4022 57.0839 70.7782 55.92 71.3395 54.9599C73.443 51.3395 76.0859 48.1374 79.3665 45.4502C82.1674 43.1546 84.8867 40.7517 87.6168 38.3756C89.9383 36.3535 92.2434 34.3207 94.5158 32.2449C96.3195 30.5983 98.0633 28.8819 99.8398 27.1978C101.006 26.0928 102.287 25.0791 103.333 23.8723C105.109 21.8288 106.837 19.7262 108.395 17.5164C109.305 16.2238 109.927 14.7058 110.51 13.2255C110.935 12.1528 110.308 10.9191 109.251 10.3774C107.627 9.54066 105.927 8.97748 104.052 9.10621C101.589 9.27784 99.0769 9.19203 96.6737 9.65866C93.742 10.2272 90.8102 11.0264 88.0473 12.1367C85.4534 13.1772 83.0557 14.7058 80.6307 16.1111C79.9223 16.5241 79.4209 17.2804 78.8052 17.8597C78.5327 18.1171 78.2057 18.3209 77.7534 18.6642C77.797 19.2596 77.8842 20.0105 77.8897 20.756C77.8897 20.9062 77.6117 21.1583 77.4319 21.1851C77.2575 21.2066 77.0069 21.0403 76.8761 20.8848C76.6309 20.5951 76.451 20.2518 76.2494 19.9354C75.8352 19.2971 75.8897 18.6428 76.4074 18.1386C77.5682 16.9961 78.6526 15.6981 80.0149 14.8399C82.3963 13.3488 84.8976 12.0133 87.4588 10.8494C90.3034 9.55675 93.3278 8.76293 96.4394 8.21584C99.6655 7.6473 102.881 7.27721 106.134 7.62048C108.608 7.87793 110.82 8.68248 112.155 11.0318C112.749 12.0777 112.76 13.0753 112.308 14.0837C111.823 15.1564 111.245 16.1916 110.646 17.2107C108.826 20.3162 106.417 22.9766 103.965 25.5833C102.232 27.423 100.303 29.0858 98.4502 30.8182C95.9217 33.1782 93.4096 35.5597 90.832 37.866C89.2408 39.2928 87.5188 40.5747 85.8894 41.9585C84.5488 43.0956 83.2519 44.2917 81.9277 45.4448C80.6416 46.5658 79.2575 47.5849 78.0804 48.8078C76.8325 50.1112 75.3067 51.1893 74.5655 52.9647C74.2059 53.8336 73.4648 54.5791 72.8054 55.2978C72.1133 56.0541 71.77 57.7329 72.2659 58.8432H72.2604Z" fill="white"/>
<path d="M85.1695 24.1464C84.7499 25.6429 84.4556 26.9731 83.9925 28.2496C83.2895 30.1913 82.6356 32.1812 81.6601 33.9941C80.5975 35.9625 80.1779 38.1026 79.4368 40.1569C79.2024 40.8059 78.8809 41.2993 78.1616 41.1492C77.1589 40.94 76.99 40.586 77.3714 39.6205C78.1888 37.5287 79.0825 35.4583 79.8891 33.3612C80.8808 30.7705 81.8127 28.1531 82.7718 25.5463C82.9625 25.0207 83.1205 24.479 83.3603 23.9748C83.4911 23.6959 83.8889 23.2507 83.9434 23.2775C84.3794 23.5082 84.7608 23.8353 85.1695 24.1464Z" fill="white"/>
<path d="M124.525 30.2125C124.896 29.8532 125.092 29.4992 125.354 29.4455C125.855 29.349 126.367 29.4348 126.574 30.0623C126.743 30.5773 127.07 31.0493 127.179 31.5695C127.256 31.9235 127.076 32.3312 127.016 32.712C126.732 32.6369 126.335 32.6476 126.182 32.4653C125.61 31.7787 125.119 31.0332 124.525 30.2072V30.2125Z" fill="white"/>
</g>
<defs>
<clipPath id="clip0_2227_15486">
<rect width="154" height="59" fill="white" transform="translate(0.513672 0.00976562)"/>
</clipPath>
</defs>
</svg>
