<svg width="30" height="30" viewBox="0 0 30 30" fill="none" xmlns="http://www.w3.org/2000/svg">
<path fill-rule="evenodd" clip-rule="evenodd" d="M24.7401 6.76878C25.8151 7.05761 26.6656 7.90807 26.9544 8.98316C27.484 10.9408 27.5 15.0005 27.5 15.0005C27.5 15.0005 27.5 19.0762 26.9705 21.0178C26.6816 22.0929 25.8312 22.9434 24.7561 23.2322C22.8145 23.7617 15 23.7617 15 23.7617C15 23.7617 7.18549 23.7617 5.2439 23.2322C4.16881 22.9434 3.31836 22.0929 3.02953 21.0178C2.5 19.0602 2.5 15.0005 2.5 15.0005C2.5 15.0005 2.5 10.9408 3.01348 8.99921C3.30231 7.92411 4.15276 7.07366 5.22786 6.78483C7.16945 6.2553 14.984 6.23926 14.984 6.23926C14.984 6.23926 22.7985 6.23926 24.7401 6.76878ZM18.9795 15.0005L12.4968 18.7553V11.2457L18.9795 15.0005Z" fill="white"/>
</svg>
